<svg width="617" height="112" viewBox="0 0 617 112" fill="none" xmlns="http://www.w3.org/2000/svg">
<g clip-path="url(#clip0_333_24154)">
<rect y="1" width="162" height="78" rx="16" fill="#2A2A2D"/>
<path d="M51.6639 40.264C53.5359 40.864 54.7359 42.304 54.7359 44.416C54.7359 47.32 52.4319 49 48.0159 49H39.3279V32.2H47.5359C51.7359 32.2 53.8959 33.952 53.8959 36.568C53.8959 38.248 53.0319 39.544 51.6639 40.264ZM47.0559 35.128H43.1919V39.088H47.0559C48.9519 39.088 49.9839 38.416 49.9839 37.096C49.9839 35.776 48.9519 35.128 47.0559 35.128ZM47.7279 46.072C49.7439 46.072 50.8239 45.448 50.8239 44.008C50.8239 42.592 49.7439 41.92 47.7279 41.92H43.1919V46.072H47.7279ZM66.6795 36.088H70.4235V49H66.8715V47.464C65.8875 48.592 64.4475 49.192 62.8635 49.192C59.6235 49.192 57.3435 47.368 57.3435 43.384V36.088H61.0875V42.832C61.0875 44.992 62.0475 45.952 63.7035 45.952C65.4315 45.952 66.6795 44.848 66.6795 42.472V36.088ZM81.2121 45.736L82.2201 48.376C81.4521 48.928 80.3241 49.192 79.1721 49.192C76.1241 49.192 74.3481 47.632 74.3481 44.56V39.256H72.3561V36.376H74.3481V33.232H78.0921V36.376H81.3081V39.256H78.0921V44.512C78.0921 45.616 78.6921 46.216 79.7001 46.216C80.2521 46.216 80.8041 46.048 81.2121 45.736ZM91.3605 45.736L92.3685 48.376C91.6005 48.928 90.4725 49.192 89.3205 49.192C86.2725 49.192 84.4965 47.632 84.4965 44.56V39.256H82.5045V36.376H84.4965V33.232H88.2405V36.376H91.4565V39.256H88.2405V44.512C88.2405 45.616 88.8405 46.216 89.8485 46.216C90.4005 46.216 90.9525 46.048 91.3605 45.736ZM100.216 49.192C96.1118 49.192 93.1118 46.432 93.1118 42.544C93.1118 38.656 96.1118 35.896 100.216 35.896C104.32 35.896 107.296 38.656 107.296 42.544C107.296 46.432 104.32 49.192 100.216 49.192ZM100.216 46.12C102.088 46.12 103.504 44.776 103.504 42.544C103.504 40.312 102.088 38.968 100.216 38.968C98.3438 38.968 96.9038 40.312 96.9038 42.544C96.9038 44.776 98.3438 46.12 100.216 46.12ZM117.646 35.896C120.694 35.896 122.998 37.672 122.998 41.608V49H119.254V42.184C119.254 40.096 118.294 39.136 116.638 39.136C114.838 39.136 113.542 40.24 113.542 42.616V49H109.798V36.088H113.374V37.6C114.382 36.496 115.894 35.896 117.646 35.896Z" fill="white"/>
</g>
<g clip-path="url(#clip1_333_24154)">
<rect x="0.5" y="1.5" width="161" height="77" fill="#E8178A" fill-opacity="0.24" stroke="#E8178A"/>
</g>
<g clip-path="url(#clip2_333_24154)">
<rect x="197" y="1" width="162" height="78" rx="16" fill="#1E3F43"/>
<path d="M248.664 40.264C250.536 40.864 251.736 42.304 251.736 44.416C251.736 47.32 249.432 49 245.016 49H236.328V32.2H244.536C248.736 32.2 250.896 33.952 250.896 36.568C250.896 38.248 250.032 39.544 248.664 40.264ZM244.056 35.128H240.192V39.088H244.056C245.952 39.088 246.984 38.416 246.984 37.096C246.984 35.776 245.952 35.128 244.056 35.128ZM244.728 46.072C246.744 46.072 247.824 45.448 247.824 44.008C247.824 42.592 246.744 41.92 244.728 41.92H240.192V46.072H244.728ZM263.68 36.088H267.424V49H263.872V47.464C262.888 48.592 261.448 49.192 259.864 49.192C256.624 49.192 254.344 47.368 254.344 43.384V36.088H258.088V42.832C258.088 44.992 259.048 45.952 260.704 45.952C262.432 45.952 263.68 44.848 263.68 42.472V36.088ZM278.212 45.736L279.22 48.376C278.452 48.928 277.324 49.192 276.172 49.192C273.124 49.192 271.348 47.632 271.348 44.56V39.256H269.356V36.376H271.348V33.232H275.092V36.376H278.308V39.256H275.092V44.512C275.092 45.616 275.692 46.216 276.7 46.216C277.252 46.216 277.804 46.048 278.212 45.736ZM288.361 45.736L289.369 48.376C288.601 48.928 287.473 49.192 286.321 49.192C283.273 49.192 281.497 47.632 281.497 44.56V39.256H279.505V36.376H281.497V33.232H285.241V36.376H288.457V39.256H285.241V44.512C285.241 45.616 285.841 46.216 286.849 46.216C287.401 46.216 287.953 46.048 288.361 45.736ZM297.216 49.192C293.112 49.192 290.112 46.432 290.112 42.544C290.112 38.656 293.112 35.896 297.216 35.896C301.32 35.896 304.296 38.656 304.296 42.544C304.296 46.432 301.32 49.192 297.216 49.192ZM297.216 46.12C299.088 46.12 300.504 44.776 300.504 42.544C300.504 40.312 299.088 38.968 297.216 38.968C295.344 38.968 293.904 40.312 293.904 42.544C293.904 44.776 295.344 46.12 297.216 46.12ZM314.646 35.896C317.694 35.896 319.998 37.672 319.998 41.608V49H316.254V42.184C316.254 40.096 315.294 39.136 313.638 39.136C311.838 39.136 310.542 40.24 310.542 42.616V49H306.798V36.088H310.374V37.6C311.382 36.496 312.894 35.896 314.646 35.896Z" fill="white"/>
</g>
<g clip-path="url(#clip3_333_24154)">
<rect x="197.5" y="1.5" width="161" height="77" fill="#E8178A" fill-opacity="0.24" stroke="#E8178A"/>
</g>
<g clip-path="url(#clip4_333_24154)">
<line x1="162.5" y1="99" x2="162.5" y2="84" stroke="#E8178A"/>
<line x1="162" y1="91.5" x2="197" y2="91.5" stroke="#E8178A"/>
<line x1="196.5" y1="99" x2="196.5" y2="84" stroke="#E8178A"/>
</g>
<path d="M169.704 109H163.019V107.872L166.259 104.338C166.533 104.033 166.76 103.764 166.943 103.531C167.13 103.294 167.278 103.078 167.387 102.882C167.496 102.686 167.574 102.504 167.619 102.335C167.665 102.166 167.688 101.995 167.688 101.822C167.688 101.594 167.651 101.385 167.578 101.193C167.51 100.997 167.41 100.831 167.278 100.694C167.15 100.553 166.993 100.444 166.806 100.366C166.624 100.289 166.419 100.25 166.191 100.25C165.598 100.25 165.161 100.412 164.878 100.735C164.6 101.059 164.461 101.506 164.461 102.075H162.821C162.821 101.642 162.898 101.234 163.053 100.852C163.213 100.464 163.438 100.127 163.73 99.8398C164.026 99.5527 164.384 99.3271 164.803 99.1631C165.222 98.9945 165.694 98.9102 166.218 98.9102C166.71 98.9102 167.148 98.9808 167.531 99.1221C167.913 99.2633 168.237 99.4616 168.501 99.7168C168.766 99.9674 168.966 100.266 169.103 100.612C169.24 100.959 169.308 101.339 169.308 101.754C169.308 102.064 169.258 102.365 169.158 102.656C169.057 102.943 168.918 103.23 168.741 103.518C168.563 103.805 168.351 104.094 168.105 104.386C167.859 104.673 167.592 104.969 167.305 105.274L165.049 107.694H169.704V109ZM177.016 105.466H178.267V106.785H177.016V109H175.382V106.785H171.061L171.02 105.794L175.327 99.0469H177.016V105.466ZM172.702 105.466H175.382V101.228L175.204 101.549L172.702 105.466ZM186.371 105.377C186.371 105.915 186.307 106.414 186.179 106.874C186.052 107.334 185.865 107.733 185.619 108.07C185.373 108.403 185.07 108.665 184.71 108.856C184.354 109.043 183.944 109.137 183.479 109.137C183.06 109.137 182.688 109.068 182.365 108.932C182.046 108.795 181.77 108.599 181.538 108.344V111.844H179.904V101.604H181.408L181.476 102.349C181.713 102.066 181.993 101.85 182.317 101.699C182.645 101.544 183.026 101.467 183.459 101.467C183.928 101.467 184.343 101.558 184.703 101.74C185.067 101.923 185.373 102.18 185.619 102.513C185.865 102.841 186.052 103.237 186.179 103.702C186.307 104.162 186.371 104.673 186.371 105.233V105.377ZM184.737 105.233C184.737 104.901 184.703 104.589 184.634 104.297C184.566 104.001 184.461 103.743 184.32 103.524C184.179 103.301 183.999 103.126 183.78 102.998C183.561 102.87 183.301 102.807 183.001 102.807C182.636 102.807 182.335 102.884 182.098 103.039C181.861 103.194 181.674 103.401 181.538 103.661V106.97C181.674 107.225 181.859 107.432 182.091 107.592C182.328 107.751 182.636 107.831 183.014 107.831C183.315 107.831 183.575 107.765 183.794 107.633C184.012 107.501 184.19 107.323 184.327 107.1C184.468 106.876 184.571 106.617 184.634 106.32C184.703 106.024 184.737 105.71 184.737 105.377V105.233ZM191.399 104.105L193.162 101.604H194.981L192.369 105.247L195.063 109H193.251L191.419 106.409L189.594 109H187.769L190.462 105.247L187.851 101.604H189.662L191.399 104.105Z" fill="#E8178A"/>
<line x1="428" y1="40.5" x2="617" y2="40.5" stroke="#E8178A" stroke-dasharray="4"/>
<path d="M477.334 49.8125V51.6035H480.13V52.8203H477.334V56.3682C477.334 56.6462 477.366 56.8763 477.43 57.0586C477.498 57.2409 477.591 57.3867 477.71 57.4961C477.828 57.6055 477.967 57.6829 478.127 57.7285C478.286 57.7695 478.462 57.79 478.653 57.79C478.795 57.79 478.94 57.7832 479.091 57.7695C479.246 57.7513 479.394 57.7331 479.535 57.7148C479.681 57.6921 479.813 57.6693 479.932 57.6465C480.055 57.6191 480.157 57.5941 480.239 57.5713L480.424 58.6992C480.305 58.7676 480.162 58.8314 479.993 58.8906C479.829 58.9453 479.649 58.9909 479.453 59.0273C479.257 59.0638 479.052 59.0911 478.838 59.1094C478.628 59.1322 478.421 59.1436 478.216 59.1436C477.847 59.1436 477.507 59.0934 477.197 58.9932C476.892 58.8883 476.628 58.7288 476.404 58.5146C476.186 58.2959 476.012 58.0179 475.885 57.6807C475.762 57.3389 475.7 56.931 475.7 56.457V52.8203H473.896V51.6035H475.7V49.8125H477.334ZM482.027 55.2334C482.027 54.7002 482.104 54.2035 482.259 53.7432C482.419 53.2829 482.645 52.8841 482.936 52.5469C483.232 52.2096 483.592 51.9453 484.016 51.7539C484.44 51.5625 484.921 51.4668 485.459 51.4668C486.001 51.4668 486.484 51.5625 486.908 51.7539C487.336 51.9453 487.696 52.2096 487.988 52.5469C488.284 52.8841 488.51 53.2829 488.665 53.7432C488.82 54.2035 488.897 54.7002 488.897 55.2334V55.377C488.897 55.9147 488.82 56.4137 488.665 56.874C488.51 57.3343 488.284 57.7331 487.988 58.0703C487.696 58.403 487.339 58.665 486.915 58.8564C486.491 59.0479 486.01 59.1436 485.472 59.1436C484.93 59.1436 484.445 59.0479 484.016 58.8564C483.592 58.665 483.232 58.403 482.936 58.0703C482.645 57.7331 482.419 57.3343 482.259 56.874C482.104 56.4137 482.027 55.9147 482.027 55.377V55.2334ZM483.661 55.377C483.661 55.7142 483.695 56.0309 483.763 56.3271C483.836 56.6234 483.946 56.8854 484.091 57.1133C484.242 57.3366 484.431 57.5143 484.659 57.6465C484.887 57.7741 485.158 57.8379 485.472 57.8379C485.778 57.8379 486.042 57.7741 486.265 57.6465C486.493 57.5143 486.68 57.3366 486.826 57.1133C486.976 56.8854 487.086 56.6234 487.154 56.3271C487.227 56.0309 487.263 55.7142 487.263 55.377V55.2334C487.263 54.9053 487.227 54.5931 487.154 54.2969C487.086 54.0007 486.976 53.7409 486.826 53.5176C486.68 53.2943 486.493 53.1165 486.265 52.9844C486.042 52.8522 485.773 52.7861 485.459 52.7861C485.149 52.7861 484.88 52.8522 484.652 52.9844C484.424 53.1165 484.237 53.2943 484.091 53.5176C483.946 53.7409 483.836 54.0007 483.763 54.2969C483.695 54.5931 483.661 54.9053 483.661 55.2334V55.377ZM495.34 57.9883C495.089 58.3529 494.784 58.6377 494.424 58.8428C494.069 59.0433 493.67 59.1436 493.228 59.1436C492.845 59.1436 492.494 59.0843 492.175 58.9658C491.861 58.8473 491.589 58.6605 491.362 58.4053C491.138 58.1455 490.963 57.8174 490.835 57.4209C490.712 57.0199 490.651 56.5391 490.651 55.9785V51.6035H492.284V55.9922C492.284 56.3477 492.31 56.6416 492.36 56.874C492.414 57.1064 492.496 57.291 492.606 57.4277C492.715 57.5645 492.852 57.6624 493.016 57.7217C493.18 57.7764 493.376 57.8037 493.604 57.8037C494.041 57.8037 494.394 57.7194 494.663 57.5508C494.932 57.3776 495.135 57.1452 495.272 56.8535V51.6035H496.912V59H495.436L495.34 57.9883ZM502.098 57.8379C502.298 57.8379 502.492 57.806 502.679 57.7422C502.87 57.6784 503.039 57.5895 503.184 57.4756C503.33 57.3617 503.444 57.2272 503.526 57.0723C503.613 56.9173 503.654 56.7487 503.649 56.5664H505.194C505.199 56.9219 505.117 57.2568 504.948 57.5713C504.784 57.8812 504.559 58.1523 504.271 58.3848C503.989 58.6172 503.661 58.8018 503.287 58.9385C502.913 59.0752 502.521 59.1436 502.111 59.1436C501.542 59.1436 501.043 59.0456 500.614 58.8496C500.186 58.6536 499.828 58.387 499.541 58.0498C499.254 57.708 499.037 57.3138 498.892 56.8672C498.75 56.416 498.68 55.9375 498.68 55.4316V55.1855C498.68 54.6797 498.75 54.2012 498.892 53.75C499.037 53.2988 499.254 52.9046 499.541 52.5674C499.828 52.2301 500.186 51.9635 500.614 51.7676C501.043 51.5671 501.539 51.4668 502.104 51.4668C502.551 51.4668 502.963 51.5352 503.342 51.6719C503.725 51.8086 504.053 52 504.326 52.2461C504.604 52.4922 504.818 52.7861 504.969 53.1279C505.124 53.4697 505.199 53.8434 505.194 54.249H503.649C503.654 54.0485 503.617 53.8594 503.54 53.6816C503.467 53.5039 503.36 53.349 503.219 53.2168C503.077 53.0846 502.911 52.9798 502.72 52.9023C502.528 52.8249 502.319 52.7861 502.091 52.7861C501.749 52.7861 501.464 52.8568 501.236 52.998C501.008 53.1348 500.826 53.3171 500.689 53.5449C500.553 53.7682 500.455 54.0234 500.395 54.3105C500.341 54.5977 500.313 54.8893 500.313 55.1855V55.4316C500.313 55.7324 500.341 56.0264 500.395 56.3135C500.455 56.6006 500.553 56.8581 500.689 57.0859C500.826 57.3092 501.008 57.4915 501.236 57.6328C501.464 57.7695 501.751 57.8379 502.098 57.8379ZM508.766 52.6289C509.021 52.2643 509.331 51.9795 509.696 51.7744C510.065 51.5693 510.475 51.4668 510.926 51.4668C511.309 51.4668 511.66 51.5238 511.979 51.6377C512.303 51.7516 512.578 51.9294 512.806 52.1709C513.034 52.4079 513.212 52.7155 513.339 53.0938C513.467 53.4674 513.531 53.9163 513.531 54.4404V59H511.897V54.4268C511.897 54.1442 511.861 53.9027 511.788 53.7021C511.719 53.4971 511.619 53.3285 511.487 53.1963C511.359 53.0641 511.202 52.9661 511.015 52.9023C510.828 52.8385 510.616 52.8066 510.379 52.8066C510.024 52.8066 509.71 52.8818 509.436 53.0322C509.163 53.1781 508.939 53.3763 508.766 53.627V59H507.132V48.5H508.766V52.6289ZM526.943 49.8125V51.6035H529.739V52.8203H526.943V56.3682C526.943 56.6462 526.975 56.8763 527.039 57.0586C527.107 57.2409 527.201 57.3867 527.319 57.4961C527.438 57.6055 527.577 57.6829 527.736 57.7285C527.896 57.7695 528.071 57.79 528.263 57.79C528.404 57.79 528.55 57.7832 528.7 57.7695C528.855 57.7513 529.003 57.7331 529.144 57.7148C529.29 57.6921 529.422 57.6693 529.541 57.6465C529.664 57.6191 529.766 57.5941 529.848 57.5713L530.033 58.6992C529.915 58.7676 529.771 58.8314 529.602 58.8906C529.438 58.9453 529.258 58.9909 529.062 59.0273C528.866 59.0638 528.661 59.0911 528.447 59.1094C528.237 59.1322 528.03 59.1436 527.825 59.1436C527.456 59.1436 527.116 59.0934 526.806 58.9932C526.501 58.8883 526.237 58.7288 526.014 58.5146C525.795 58.2959 525.622 58.0179 525.494 57.6807C525.371 57.3389 525.309 56.931 525.309 56.457V52.8203H523.505V51.6035H525.309V49.8125H526.943ZM536.654 59C536.608 58.9089 536.569 58.8018 536.538 58.6787C536.51 58.5557 536.485 58.4235 536.462 58.2822C536.348 58.4007 536.219 58.5124 536.073 58.6172C535.931 58.7174 535.772 58.8063 535.594 58.8838C535.421 58.9613 535.232 59.0228 535.027 59.0684C534.826 59.1139 534.61 59.1367 534.377 59.1367C533.985 59.1367 533.63 59.082 533.311 58.9727C532.997 58.8587 532.725 58.7038 532.498 58.5078C532.274 58.3073 532.101 58.0726 531.978 57.8037C531.855 57.5348 531.793 57.2432 531.793 56.9287C531.793 56.1357 532.087 55.5296 532.675 55.1104C533.268 54.6911 534.115 54.4814 535.218 54.4814H536.415V53.9961C536.415 53.6042 536.282 53.2943 536.018 53.0664C535.754 52.834 535.38 52.7178 534.897 52.7178C534.678 52.7178 534.487 52.7451 534.323 52.7998C534.159 52.8499 534.022 52.9206 533.913 53.0117C533.803 53.1029 533.721 53.21 533.666 53.333C533.612 53.4561 533.584 53.5882 533.584 53.7295H531.951C531.951 53.4424 532.017 53.1644 532.149 52.8955C532.286 52.6221 532.484 52.3805 532.744 52.1709C533.003 51.9567 533.32 51.7858 533.694 51.6582C534.072 51.5306 534.503 51.4668 534.986 51.4668C535.423 51.4668 535.829 51.5215 536.203 51.6309C536.576 51.7357 536.9 51.8952 537.173 52.1094C537.447 52.319 537.661 52.5833 537.816 52.9023C537.971 53.2168 538.048 53.5859 538.048 54.0098V57.3047C538.048 57.6283 538.071 57.9245 538.117 58.1934C538.167 58.4577 538.237 58.6878 538.329 58.8838V59H536.654ZM534.685 57.8174C534.895 57.8174 535.091 57.7923 535.273 57.7422C535.46 57.6875 535.626 57.6191 535.772 57.5371C535.922 57.4505 536.05 57.3525 536.155 57.2432C536.264 57.1338 536.351 57.0221 536.415 56.9082V55.5205H535.375C534.71 55.5205 534.218 55.6276 533.899 55.8418C533.584 56.056 533.427 56.3613 533.427 56.7578C533.427 56.9082 533.452 57.0495 533.502 57.1816C533.553 57.3092 533.628 57.4209 533.728 57.5166C533.833 57.6077 533.963 57.6807 534.118 57.7354C534.277 57.79 534.466 57.8174 534.685 57.8174ZM545.284 51.4668C545.416 51.4668 545.549 51.4714 545.681 51.4805C545.813 51.4896 545.938 51.5033 546.057 51.5215C546.18 51.5397 546.291 51.5602 546.392 51.583C546.492 51.6012 546.576 51.624 546.645 51.6514L546.412 53.2578C545.911 53.1439 545.416 53.0869 544.929 53.0869C544.382 53.0869 543.94 53.2008 543.603 53.4287C543.27 53.6566 543.024 53.9733 542.864 54.3789V59H541.231V51.6035H542.762L542.837 52.7588C543.138 52.3577 543.493 52.0433 543.903 51.8154C544.318 51.583 544.778 51.4668 545.284 51.4668ZM548.261 55.2471C548.261 54.6865 548.33 54.1738 548.467 53.709C548.608 53.2441 548.808 52.8454 549.068 52.5127C549.328 52.18 549.64 51.9225 550.005 51.7402C550.374 51.5579 550.786 51.4668 551.242 51.4668C551.684 51.4668 552.067 51.542 552.39 51.6924C552.714 51.8428 552.992 52.0592 553.224 52.3418L553.293 51.6035H554.776V58.8018C554.776 59.2985 554.694 59.7383 554.53 60.1211C554.366 60.5085 554.136 60.8343 553.84 61.0986C553.548 61.363 553.197 61.5635 552.787 61.7002C552.377 61.8415 551.926 61.9121 551.433 61.9121C551.233 61.9121 551.005 61.8893 550.75 61.8438C550.499 61.8027 550.246 61.7321 549.991 61.6318C549.736 61.5361 549.492 61.4085 549.26 61.249C549.027 61.0941 548.829 60.9049 548.665 60.6816L549.444 59.7041C549.722 60.0322 550.021 60.2669 550.34 60.4082C550.663 60.5495 550.996 60.6201 551.338 60.6201C551.611 60.6201 551.859 60.5814 552.083 60.5039C552.306 60.4264 552.495 60.3125 552.65 60.1621C552.805 60.0117 552.924 59.8249 553.006 59.6016C553.092 59.3828 553.136 59.1299 553.136 58.8428V58.3438C552.903 58.599 552.63 58.7949 552.315 58.9316C552.005 59.0684 551.643 59.1367 551.228 59.1367C550.777 59.1367 550.369 59.0433 550.005 58.8564C549.64 58.665 549.328 58.403 549.068 58.0703C548.808 57.7376 548.608 57.3434 548.467 56.8877C548.33 56.4274 548.261 55.9284 548.261 55.3906V55.2471ZM549.902 55.3906C549.902 55.7233 549.936 56.0355 550.005 56.3271C550.073 56.6188 550.178 56.874 550.319 57.0928C550.46 57.3115 550.64 57.4847 550.859 57.6123C551.082 57.7354 551.344 57.7969 551.645 57.7969C552.024 57.7969 552.331 57.7194 552.568 57.5645C552.805 57.4049 552.994 57.193 553.136 56.9287V53.6611C552.99 53.4014 552.798 53.194 552.561 53.0391C552.324 52.8841 552.024 52.8066 551.659 52.8066C551.358 52.8066 551.096 52.8704 550.873 52.998C550.654 53.1257 550.472 53.3011 550.326 53.5244C550.185 53.7477 550.078 54.0075 550.005 54.3037C549.936 54.5999 549.902 54.9144 549.902 55.2471V55.3906ZM560.187 59.1367C559.64 59.1367 559.141 59.0456 558.69 58.8633C558.239 58.681 557.851 58.4303 557.528 58.1113C557.209 57.7923 556.96 57.4163 556.783 56.9834C556.605 56.5459 556.516 56.0742 556.516 55.5684V55.2881C556.516 54.7002 556.609 54.1715 556.796 53.7021C556.988 53.2327 557.241 52.8317 557.555 52.499C557.874 52.1663 558.243 51.9111 558.662 51.7334C559.086 51.5557 559.531 51.4668 559.996 51.4668C560.533 51.4668 561.007 51.5579 561.417 51.7402C561.828 51.918 562.169 52.1709 562.443 52.499C562.721 52.8226 562.93 53.2077 563.072 53.6543C563.213 54.1009 563.284 54.5908 563.284 55.124V55.8145H558.157C558.184 56.1016 558.255 56.3682 558.369 56.6143C558.482 56.8604 558.631 57.0745 558.813 57.2568C559 57.4346 559.216 57.5758 559.462 57.6807C559.713 57.7809 559.986 57.8311 560.283 57.8311C560.697 57.8311 561.078 57.749 561.424 57.585C561.775 57.4209 562.06 57.1953 562.279 56.9082L563.167 57.7422C563.049 57.9199 562.896 58.0931 562.709 58.2617C562.523 58.4258 562.304 58.5739 562.053 58.7061C561.802 58.8337 561.52 58.9362 561.205 59.0137C560.896 59.0957 560.556 59.1367 560.187 59.1367ZM559.989 52.7861C559.761 52.7861 559.549 52.8271 559.353 52.9092C559.157 52.9912 558.982 53.112 558.827 53.2715C558.672 53.4264 558.539 53.6178 558.43 53.8457C558.325 54.069 558.25 54.3242 558.204 54.6113H561.67V54.4883C561.657 54.2695 561.613 54.0599 561.54 53.8594C561.472 53.6543 561.37 53.472 561.233 53.3125C561.096 53.153 560.923 53.0254 560.713 52.9297C560.508 52.834 560.267 52.7861 559.989 52.7861ZM568.284 49.8125V51.6035H571.08V52.8203H568.284V56.3682C568.284 56.6462 568.316 56.8763 568.38 57.0586C568.448 57.2409 568.542 57.3867 568.66 57.4961C568.779 57.6055 568.918 57.6829 569.077 57.7285C569.237 57.7695 569.412 57.79 569.604 57.79C569.745 57.79 569.891 57.7832 570.041 57.7695C570.196 57.7513 570.344 57.7331 570.485 57.7148C570.631 57.6921 570.763 57.6693 570.882 57.6465C571.005 57.6191 571.107 57.5941 571.189 57.5713L571.374 58.6992C571.256 58.7676 571.112 58.8314 570.943 58.8906C570.779 58.9453 570.599 58.9909 570.403 59.0273C570.207 59.0638 570.002 59.0911 569.788 59.1094C569.578 59.1322 569.371 59.1436 569.166 59.1436C568.797 59.1436 568.457 59.0934 568.147 58.9932C567.842 58.8883 567.578 58.7288 567.355 58.5146C567.136 58.2959 566.963 58.0179 566.835 57.6807C566.712 57.3389 566.65 56.931 566.65 56.457V52.8203H564.846V51.6035H566.65V49.8125H568.284ZM586.366 56.9971C586.366 56.874 586.34 56.7624 586.29 56.6621C586.24 56.5573 586.149 56.4639 586.017 56.3818C585.889 56.2952 585.712 56.2155 585.484 56.1426C585.26 56.0697 584.973 55.999 584.622 55.9307C584.185 55.8395 583.788 55.7301 583.433 55.6025C583.082 55.4749 582.779 55.3223 582.524 55.1445C582.273 54.9668 582.079 54.7617 581.943 54.5293C581.806 54.2923 581.738 54.0189 581.738 53.709C581.738 53.4082 581.808 53.1234 581.95 52.8545C582.091 52.5811 582.291 52.3418 582.551 52.1367C582.815 51.9316 583.134 51.7699 583.508 51.6514C583.886 51.5283 584.308 51.4668 584.773 51.4668C585.265 51.4668 585.705 51.5283 586.092 51.6514C586.484 51.7744 586.814 51.943 587.083 52.1572C587.352 52.3669 587.557 52.6152 587.699 52.9023C587.844 53.1895 587.917 53.4971 587.917 53.8252H586.284C586.284 53.6794 586.252 53.5404 586.188 53.4082C586.124 53.2715 586.028 53.1507 585.901 53.0459C585.773 52.9411 585.614 52.859 585.422 52.7998C585.235 52.736 585.019 52.7041 584.773 52.7041C584.527 52.7041 584.312 52.7314 584.13 52.7861C583.952 52.8363 583.804 52.9046 583.686 52.9912C583.567 53.0732 583.479 53.1712 583.419 53.2852C583.365 53.3991 583.337 53.5176 583.337 53.6406C583.337 53.7637 583.358 53.8753 583.399 53.9756C583.444 54.0758 583.526 54.167 583.645 54.249C583.763 54.3311 583.927 54.4062 584.137 54.4746C584.347 54.5384 584.618 54.5999 584.951 54.6592C585.415 54.7412 585.832 54.8438 586.201 54.9668C586.575 55.0898 586.892 55.2402 587.152 55.418C587.416 55.5957 587.619 55.8076 587.76 56.0537C587.901 56.2952 587.972 56.5801 587.972 56.9082C587.972 57.2363 587.897 57.5371 587.746 57.8105C587.596 58.084 587.382 58.321 587.104 58.5215C586.826 58.7174 586.491 58.8701 586.099 58.9795C585.712 59.0889 585.276 59.1436 584.793 59.1436C584.256 59.1436 583.782 59.0729 583.371 58.9316C582.961 58.7858 582.617 58.5967 582.339 58.3643C582.061 58.1318 581.849 57.8675 581.703 57.5713C581.562 57.2751 581.492 56.9743 581.492 56.6689H583.077C583.091 56.8968 583.15 57.0905 583.255 57.25C583.36 57.4095 583.494 57.5394 583.659 57.6396C583.823 57.7354 584.005 57.806 584.205 57.8516C584.406 57.8926 584.609 57.9131 584.814 57.9131C585.32 57.9131 585.705 57.8288 585.969 57.6602C586.233 57.487 586.366 57.266 586.366 56.9971ZM590.17 51.6035H594.114V57.6465H596.309V59H590.17V57.6465H592.467V52.9639H590.17V51.6035ZM592.33 49.6895C592.33 49.4342 592.412 49.2246 592.576 49.0605C592.74 48.8919 592.97 48.8076 593.267 48.8076C593.567 48.8076 593.8 48.8919 593.964 49.0605C594.132 49.2246 594.217 49.4342 594.217 49.6895C594.217 49.9447 594.132 50.1566 593.964 50.3252C593.8 50.4893 593.567 50.5713 593.267 50.5713C592.97 50.5713 592.74 50.4893 592.576 50.3252C592.412 50.1566 592.33 49.9447 592.33 49.6895ZM600.133 57.6943H604.604V59H597.98V57.9199L602.205 52.9297H598.048V51.6035H604.406V52.6494L600.133 57.6943ZM609.796 59.1367C609.249 59.1367 608.75 59.0456 608.299 58.8633C607.848 58.681 607.461 58.4303 607.137 58.1113C606.818 57.7923 606.57 57.4163 606.392 56.9834C606.214 56.5459 606.125 56.0742 606.125 55.5684V55.2881C606.125 54.7002 606.219 54.1715 606.406 53.7021C606.597 53.2327 606.85 52.8317 607.164 52.499C607.483 52.1663 607.852 51.9111 608.272 51.7334C608.696 51.5557 609.14 51.4668 609.605 51.4668C610.142 51.4668 610.616 51.5579 611.027 51.7402C611.437 51.918 611.779 52.1709 612.052 52.499C612.33 52.8226 612.54 53.2077 612.681 53.6543C612.822 54.1009 612.893 54.5908 612.893 55.124V55.8145H607.766C607.793 56.1016 607.864 56.3682 607.978 56.6143C608.092 56.8604 608.24 57.0745 608.422 57.2568C608.609 57.4346 608.825 57.5758 609.072 57.6807C609.322 57.7809 609.596 57.8311 609.892 57.8311C610.307 57.8311 610.687 57.749 611.033 57.585C611.384 57.4209 611.669 57.1953 611.888 56.9082L612.777 57.7422C612.658 57.9199 612.505 58.0931 612.319 58.2617C612.132 58.4258 611.913 58.5739 611.662 58.7061C611.412 58.8337 611.129 58.9362 610.815 59.0137C610.505 59.0957 610.165 59.1367 609.796 59.1367ZM609.598 52.7861C609.37 52.7861 609.158 52.8271 608.962 52.9092C608.766 52.9912 608.591 53.112 608.436 53.2715C608.281 53.4264 608.149 53.6178 608.039 53.8457C607.934 54.069 607.859 54.3242 607.814 54.6113H611.28V54.4883C611.266 54.2695 611.223 54.0599 611.15 53.8594C611.081 53.6543 610.979 53.472 610.842 53.3125C610.705 53.153 610.532 53.0254 610.322 52.9297C610.117 52.834 609.876 52.7861 609.598 52.7861Z" fill="#E8178A"/>
<g clip-path="url(#clip5_333_24154)">
<line x1="365" y1="0.5" x2="380" y2="0.5" stroke="#E8178A"/>
<line x1="372.5" y1="79" x2="372.5" y2="1" stroke="#E8178A"/>
<line x1="365" y1="77.5" x2="380" y2="77.5" stroke="#E8178A"/>
</g>
<path d="M391.492 34.9561L387.507 44H385.784L389.77 35.4072H384.608V34.0469H391.492V34.9561ZM399.535 36.6719C399.535 37.1595 399.409 37.5947 399.159 37.9775C398.908 38.3558 398.566 38.6543 398.133 38.873C398.38 38.987 398.601 39.126 398.797 39.29C398.997 39.4541 399.168 39.6387 399.309 39.8438C399.45 40.0488 399.558 40.2744 399.631 40.5205C399.708 40.762 399.747 41.0195 399.747 41.293C399.747 41.7533 399.662 42.1611 399.494 42.5166C399.325 42.8721 399.095 43.1706 398.803 43.4121C398.512 43.6491 398.168 43.8291 397.771 43.9521C397.379 44.0752 396.958 44.1367 396.506 44.1367C396.046 44.1367 395.616 44.0752 395.214 43.9521C394.818 43.8291 394.474 43.6491 394.182 43.4121C393.891 43.1706 393.66 42.8721 393.492 42.5166C393.328 42.1611 393.246 41.7533 393.246 41.293C393.246 41.0195 393.282 40.7598 393.355 40.5137C393.433 40.2676 393.54 40.042 393.676 39.8369C393.818 39.6318 393.986 39.4473 394.182 39.2832C394.383 39.1191 394.606 38.9824 394.852 38.873C394.424 38.6543 394.087 38.3558 393.84 37.9775C393.594 37.5947 393.471 37.1595 393.471 36.6719C393.471 36.2298 393.547 35.8379 393.697 35.4961C393.847 35.1497 394.055 34.8604 394.319 34.6279C394.588 34.391 394.907 34.2132 395.276 34.0947C395.645 33.9717 396.048 33.9102 396.486 33.9102C396.923 33.9102 397.327 33.9717 397.696 34.0947C398.07 34.2132 398.393 34.391 398.667 34.6279C398.94 34.8604 399.152 35.1497 399.302 35.4961C399.457 35.8379 399.535 36.2298 399.535 36.6719ZM398.113 41.2109C398.113 40.9603 398.074 40.7324 397.997 40.5273C397.919 40.3223 397.81 40.1468 397.669 40.001C397.527 39.8551 397.356 39.7435 397.156 39.666C396.96 39.584 396.739 39.543 396.493 39.543C396.247 39.543 396.023 39.584 395.823 39.666C395.627 39.7435 395.458 39.8551 395.317 40.001C395.18 40.1468 395.073 40.3223 394.996 40.5273C394.923 40.7324 394.886 40.9603 394.886 41.2109C394.886 41.7214 395.03 42.1201 395.317 42.4072C395.604 42.6898 396.001 42.8311 396.506 42.8311C396.743 42.8311 396.96 42.7946 397.156 42.7217C397.356 42.6488 397.527 42.5417 397.669 42.4004C397.81 42.2591 397.919 42.0905 397.997 41.8945C398.074 41.694 398.113 41.4661 398.113 41.2109ZM397.901 36.7266C397.901 36.5078 397.867 36.3073 397.798 36.125C397.73 35.9382 397.634 35.7786 397.511 35.6465C397.388 35.5143 397.238 35.4118 397.06 35.3389C396.887 35.266 396.696 35.2295 396.486 35.2295C396.272 35.2295 396.078 35.2637 395.905 35.332C395.736 35.4004 395.593 35.5007 395.474 35.6328C395.356 35.7604 395.265 35.9176 395.201 36.1045C395.137 36.2868 395.105 36.4941 395.105 36.7266C395.105 36.9544 395.137 37.1618 395.201 37.3486C395.269 37.5309 395.363 37.6882 395.481 37.8203C395.604 37.9479 395.752 38.0482 395.925 38.1211C396.099 38.194 396.292 38.2305 396.506 38.2305C396.716 38.2305 396.908 38.194 397.081 38.1211C397.254 38.0482 397.4 37.9479 397.518 37.8203C397.641 37.6882 397.735 37.5309 397.798 37.3486C397.867 37.1618 397.901 36.9544 397.901 36.7266ZM408.07 40.377C408.07 40.9147 408.006 41.4137 407.878 41.874C407.751 42.3343 407.564 42.7331 407.318 43.0703C407.072 43.403 406.769 43.665 406.408 43.8564C406.053 44.0433 405.643 44.1367 405.178 44.1367C404.759 44.1367 404.387 44.0684 404.064 43.9316C403.745 43.7949 403.469 43.599 403.237 43.3438V46.8438H401.603V36.6035H403.107L403.175 37.3486C403.412 37.0661 403.692 36.8496 404.016 36.6992C404.344 36.5443 404.725 36.4668 405.157 36.4668C405.627 36.4668 406.042 36.5579 406.402 36.7402C406.766 36.9225 407.072 37.18 407.318 37.5127C407.564 37.8408 407.751 38.2373 407.878 38.7021C408.006 39.1624 408.07 39.6729 408.07 40.2334V40.377ZM406.436 40.2334C406.436 39.9007 406.402 39.5885 406.333 39.2969C406.265 39.0007 406.16 38.7432 406.019 38.5244C405.878 38.3011 405.698 38.1257 405.479 37.998C405.26 37.8704 405 37.8066 404.699 37.8066C404.335 37.8066 404.034 37.8841 403.797 38.0391C403.56 38.194 403.373 38.4014 403.237 38.6611V41.9697C403.373 42.2249 403.558 42.4323 403.79 42.5918C404.027 42.7513 404.335 42.8311 404.713 42.8311C405.014 42.8311 405.274 42.765 405.492 42.6328C405.711 42.5007 405.889 42.3229 406.026 42.0996C406.167 41.8763 406.269 41.6165 406.333 41.3203C406.402 41.0241 406.436 40.7096 406.436 40.377V40.2334ZM413.098 39.1055L414.861 36.6035H416.68L414.068 40.2471L416.762 44H414.95L413.118 41.4092L411.293 44H409.468L412.161 40.2471L409.55 36.6035H411.361L413.098 39.1055Z" fill="#E8178A"/>
<defs>
<clipPath id="clip0_333_24154">
<rect width="162" height="78" fill="white" transform="translate(0 1)"/>
</clipPath>
<clipPath id="clip1_333_24154">
<rect width="162" height="78" fill="white" transform="translate(0 1)"/>
</clipPath>
<clipPath id="clip2_333_24154">
<rect width="162" height="78" fill="white" transform="translate(197 1)"/>
</clipPath>
<clipPath id="clip3_333_24154">
<rect width="162" height="78" fill="white" transform="translate(197 1)"/>
</clipPath>
<clipPath id="clip4_333_24154">
<rect width="35" height="15" fill="white" transform="translate(162 84)"/>
</clipPath>
<clipPath id="clip5_333_24154">
<rect width="15" height="78" fill="white" transform="translate(365)"/>
</clipPath>
</defs>
</svg>
