<svg width="32" height="32" viewBox="0 0 32 32" fill="none" xmlns="http://www.w3.org/2000/svg">
<path d="M5.11111 4C3.39514 4 2 5.40137 2 7.125V21.1875C2 22.9111 3.39514 24.3125 5.11111 24.3125H13.6667L13.1465 25.875H9.77778C8.91736 25.875 8.22222 26.5732 8.22222 27.4375C8.22222 28.3018 8.91736 29 9.77778 29H22.2222C23.0826 29 23.7778 28.3018 23.7778 27.4375C23.7778 26.5732 23.0826 25.875 22.2222 25.875H18.8535L18.3333 24.3125H26.8889C28.6049 24.3125 30 22.9111 30 21.1875V7.125C30 5.40137 28.6049 4 26.8889 4H5.11111ZM26.8889 7.125V18.0625H5.11111V7.125H26.8889Z" fill="white"/>
</svg>
