<svg width="40" height="40" viewBox="0 0 40 40" fill="none" xmlns="http://www.w3.org/2000/svg">
<rect x="0.5" y="0.5" width="39" height="39" fill="#0A0A0A"/>
<rect x="0.5" y="0.5" width="39" height="39" stroke="url(#paint0_linear_326_9819)" stroke-dasharray="2 2"/>
<g clip-path="url(#clip0_326_9819)">
<path d="M28 12H12C10.9 12 10.01 12.9 10.01 14L10 26C10 27.1 10.9 28 12 28H28C29.1 28 30 27.1 30 26V14C30 12.9 29.1 12 28 12ZM28 16L20 21L12 16V14L20 19L28 14V16Z" fill="#A5F3FC"/>
</g>
<defs>
<linearGradient id="paint0_linear_326_9819" x1="20" y1="14.3689" x2="36.1482" y2="15.2157" gradientUnits="userSpaceOnUse">
<stop stop-color="#213CAC"/>
<stop offset="1" stop-color="#31FFFF"/>
</linearGradient>
<clipPath id="clip0_326_9819">
<rect width="24" height="24" fill="white" transform="translate(8 8)"/>
</clipPath>
</defs>
</svg>
