<svg width="32" height="32" viewBox="0 0 32 32" fill="none" xmlns="http://www.w3.org/2000/svg">
<path d="M22.1923 2.90525L19.1215 5.98061L26.0238 12.8809L29.0945 9.81104C30.3018 8.60404 30.3018 6.65301 29.0945 5.44601L26.5585 2.90525C25.3512 1.69825 23.3996 1.69825 22.1923 2.90525ZM17.7598 7.11045L17.2526 7.26477L9.30844 9.6457C8.21136 9.97639 7.34031 10.8141 6.97646 11.9054L2.09196 26.4665C1.88247 27.0893 2.03683 27.7837 2.49441 28.2522L10.9623 19.7922C10.7969 19.445 10.7032 19.0592 10.7032 18.6513C10.7032 17.1908 11.8885 16.0059 13.3495 16.0059C14.8104 16.0059 15.9957 17.1908 15.9957 18.6513C15.9957 20.1119 14.8104 21.2968 13.3495 21.2968C12.9415 21.2968 12.5556 21.2031 12.2083 21.0378L3.74034 29.5033C4.21446 29.9608 4.90358 30.1206 5.52655 29.9056L20.0973 25.0225C21.1834 24.6588 22.0269 23.788 22.3576 22.6912L24.7392 14.7493L24.8936 14.2422L17.7598 7.11045Z" fill="white"/>
</svg>
