<svg width="64" height="83" viewBox="0 0 64 83" fill="none" xmlns="http://www.w3.org/2000/svg">
<path d="M42.2891 26.0429L35.7341 25.2515C34.5981 25.1139 33.5653 25.9295 33.4378 27.0528C33.3001 28.1882 34.104 29.2225 35.24 29.348L37.7652 29.6576C39.0977 28.6598 40.3835 27.6377 41.6107 26.6176C41.8395 26.4233 42.0582 26.227 42.2891 26.0429Z" fill="#215054"/>
<path d="M49.4297 18.5708C49.1543 18.9493 48.8667 19.3278 48.5691 19.7063C47.8461 20.6009 47.0645 21.4853 46.2261 22.3455L30.0848 20.4066C28.9488 20.2811 28.1327 19.2469 28.2704 18.1114C28.4081 16.9861 29.4409 16.1725 30.5668 16.3101L49.4297 18.5708Z" fill="#215054"/>
<path d="M53.1744 10.7238L25.5412 7.38433C24.4052 7.2467 23.3825 8.0603 23.2448 9.18561C23.1071 10.321 23.9212 11.3533 25.0471 11.4909L51.7731 14.6928C52.1517 13.9115 52.4616 13.1323 52.7268 12.3288C52.9111 11.7661 53.0589 11.2278 53.1744 10.7218V10.7238ZM54.6202 13.1809C54.6425 13.1242 54.6546 13.0655 54.6769 12.9967L54.6202 13.1809ZM54.8045 12.6182C54.9543 12.1244 55.0799 11.6204 55.1953 11.1043C55.0799 11.6083 54.9543 12.1264 54.8045 12.6182Z" fill="#215054"/>
<path d="M27.7781 57.585C28.9142 57.7105 29.9368 56.907 30.0745 55.7716C30.2122 54.6483 29.4083 53.6141 28.2722 53.4764L25.9759 53.2012C24.6556 54.199 23.3697 55.221 22.1304 56.2431C21.9016 56.4374 21.6829 56.6338 21.452 56.8159L27.7781 57.585Z" fill="#215054"/>
<path d="M33.0594 66.535C34.1954 66.6726 35.2302 65.8569 35.3557 64.7337C35.4934 63.5982 34.6895 62.566 33.5535 62.4385L17.5033 60.5117C16.6184 61.4407 15.7821 62.394 15.0004 63.3695C14.7594 63.6792 14.5306 63.9787 14.3119 64.2884L33.0594 66.537V66.535Z" fill="#215054"/>
<path d="M38.169 75.4624C39.2949 75.6 40.3276 74.7965 40.4653 73.6611C40.603 72.5257 39.7869 71.5036 38.6631 71.366L11.9594 68.1641C11.603 68.9332 11.283 69.7245 11.0177 70.528C10.8335 71.0907 10.6856 71.6291 10.5702 72.1452L38.169 75.4604V75.4624ZM9.1365 69.6436C9.11423 69.7245 9.0798 69.8156 9.0555 69.8966C9.07777 69.8156 9.1122 69.7245 9.1365 69.6436ZM9.02108 70.0119C8.92995 70.2993 8.8368 70.5968 8.75783 70.9065C8.83883 70.609 8.92995 70.2973 9.02108 70.0119Z" fill="#215054"/>
<path fill-rule="evenodd" clip-rule="evenodd" d="M63.7102 10.2888C62.0234 24.2985 50.4849 33.4548 38.0291 42.1638C36.7655 43.0483 35.4918 43.9307 34.2059 44.8152C33.2076 45.5033 32.2093 46.2036 31.2089 46.8917C27.57 49.4277 24.01 51.986 20.8085 54.6596C17.9836 57.0337 15.4362 59.4908 13.3808 62.0956C11.453 64.5506 9.94843 67.1332 9.05338 69.8979C8.66256 71.0799 8.38716 72.3084 8.23731 73.5592C7.97406 75.8301 5.90652 77.4371 3.6446 77.174C1.38267 76.8987 -0.235304 74.8444 0.027946 72.5735C1.71477 58.5638 13.2532 49.4075 25.709 40.6985C26.9828 39.814 28.2585 38.9316 29.5322 38.0471C30.5306 37.359 31.5309 36.6587 32.5292 35.9706C36.1682 33.4346 39.7281 30.8763 42.9296 28.2027C48.4295 23.6023 52.838 18.6679 54.6848 12.9644C55.0756 11.7824 55.351 10.5539 55.5009 9.30311C55.7641 7.03225 57.8316 5.42524 60.0936 5.68835C62.3555 5.96361 63.9735 8.01791 63.7102 10.2888Z" fill="#215054"/>
<path fill-rule="evenodd" clip-rule="evenodd" d="M16.5155 4.61877C15.2863 14.8883 22.6695 24.676 31.1522 34.4072C29.269 35.7268 28.8093 36.0364 28.3618 36.3461L28.3496 36.3582C27.1204 37.2083 25.8933 38.0563 24.5386 39.0096L24.3543 39.1351C14.8712 28.222 6.6983 17.0134 8.30412 3.64525C8.57952 1.37438 10.6349 -0.244766 12.907 0.0304903C15.1689 0.305746 16.7869 2.36006 16.5115 4.6208L16.5155 4.61877Z" fill="#215054"/>
<path fill-rule="evenodd" clip-rule="evenodd" d="M47.2226 78.2409C48.4518 67.9714 41.0686 58.1836 32.5859 48.4525C34.4692 47.1329 34.9288 46.8233 35.3763 46.5136L35.3885 46.5015C36.6177 45.6514 37.8448 44.8034 39.2117 43.8501L39.3838 43.7246C48.8669 54.6377 57.0398 65.8463 55.434 79.2144C55.1586 81.4873 53.1032 83.1045 50.8312 82.8292C48.5692 82.554 46.9513 80.4996 47.2267 78.2389L47.2226 78.2409Z" fill="#215054"/>
</svg>
