<svg width="92" height="26" viewBox="0 0 92 26" fill="none" xmlns="http://www.w3.org/2000/svg">
<rect x="0.5" y="0.5" width="91" height="25" rx="3.5" stroke="#737373"/>
<path d="M13.072 8.228V18H11.112V13.842H6.926V18H4.966V8.228H6.926V12.246H11.112V8.228H13.072ZM25.6552 8.228V18H23.6952V11.644L21.0772 18H19.5932L16.9612 11.644V18H15.0012V8.228H17.2272L20.3352 15.494L23.4432 8.228H25.6552ZM29.553 8.228V18H27.593V8.228H29.553ZM38.1994 18.098C37.518 18.098 36.902 17.9813 36.3514 17.748C35.81 17.5147 35.3807 17.1787 35.0634 16.74C34.746 16.3013 34.5827 15.7833 34.5734 15.186H36.6734C36.7014 15.5873 36.8414 15.9047 37.0934 16.138C37.3547 16.3713 37.7094 16.488 38.1574 16.488C38.6147 16.488 38.974 16.3807 39.2354 16.166C39.4967 15.942 39.6274 15.6527 39.6274 15.298C39.6274 15.0087 39.5387 14.7707 39.3614 14.584C39.184 14.3973 38.96 14.2527 38.6894 14.15C38.428 14.038 38.064 13.9167 37.5974 13.786C36.9627 13.5993 36.4447 13.4173 36.0434 13.24C35.6514 13.0533 35.3107 12.778 35.0214 12.414C34.7414 12.0407 34.6014 11.546 34.6014 10.93C34.6014 10.3513 34.746 9.84733 35.0354 9.418C35.3247 8.98867 35.7307 8.662 36.2534 8.438C36.776 8.20467 37.3734 8.088 38.0454 8.088C39.0534 8.088 39.87 8.33533 40.4954 8.83C41.13 9.31533 41.48 9.99667 41.5454 10.874H39.3894C39.3707 10.538 39.226 10.2627 38.9554 10.048C38.694 9.824 38.344 9.712 37.9054 9.712C37.5227 9.712 37.2147 9.81 36.9814 10.006C36.7574 10.202 36.6454 10.4867 36.6454 10.86C36.6454 11.1213 36.7294 11.3407 36.8974 11.518C37.0747 11.686 37.2894 11.826 37.5414 11.938C37.8027 12.0407 38.1667 12.162 38.6334 12.302C39.268 12.4887 39.786 12.6753 40.1874 12.862C40.5887 13.0487 40.934 13.3287 41.2234 13.702C41.5127 14.0753 41.6574 14.5653 41.6574 15.172C41.6574 15.6947 41.522 16.18 41.2514 16.628C40.9807 17.076 40.584 17.4353 40.0614 17.706C39.5387 17.9673 38.918 18.098 38.1994 18.098ZM50.7766 10.244L45.9746 21.668H43.8886L45.5686 17.804L42.4606 10.244H44.6586L46.6606 15.662L48.6906 10.244H50.7766ZM54.8012 18.126C54.1665 18.126 53.5972 18.014 53.0932 17.79C52.5892 17.5567 52.1879 17.244 51.8892 16.852C51.5999 16.46 51.4412 16.026 51.4132 15.55H53.3872C53.4245 15.8487 53.5692 16.096 53.8212 16.292C54.0825 16.488 54.4045 16.586 54.7872 16.586C55.1605 16.586 55.4499 16.5113 55.6552 16.362C55.8699 16.2127 55.9772 16.0213 55.9772 15.788C55.9772 15.536 55.8465 15.3493 55.5852 15.228C55.3332 15.0973 54.9272 14.9573 54.3672 14.808C53.7885 14.668 53.3125 14.5233 52.9392 14.374C52.5752 14.2247 52.2579 13.996 51.9872 13.688C51.7259 13.38 51.5952 12.9647 51.5952 12.442C51.5952 12.0127 51.7165 11.6207 51.9592 11.266C52.2112 10.9113 52.5659 10.6313 53.0232 10.426C53.4899 10.2207 54.0359 10.118 54.6612 10.118C55.5852 10.118 56.3225 10.3513 56.8732 10.818C57.4239 11.2753 57.7272 11.896 57.7832 12.68H55.9072C55.8792 12.372 55.7485 12.1293 55.5152 11.952C55.2912 11.7653 54.9879 11.672 54.6052 11.672C54.2505 11.672 53.9752 11.7373 53.7792 11.868C53.5925 11.9987 53.4992 12.1807 53.4992 12.414C53.4992 12.6753 53.6299 12.876 53.8912 13.016C54.1525 13.1467 54.5585 13.282 55.1092 13.422C55.6692 13.562 56.1312 13.7067 56.4952 13.856C56.8592 14.0053 57.1719 14.2387 57.4332 14.556C57.7039 14.864 57.8439 15.2747 57.8532 15.788C57.8532 16.236 57.7272 16.6373 57.4752 16.992C57.2325 17.3467 56.8779 17.6267 56.4112 17.832C55.9539 18.028 55.4172 18.126 54.8012 18.126ZM61.7441 11.854V15.606C61.7441 15.8673 61.8048 16.0587 61.9261 16.18C62.0568 16.292 62.2714 16.348 62.5701 16.348H63.4801V18H62.2481C60.5961 18 59.7701 17.1973 59.7701 15.592V11.854H58.8461V10.244H59.7701V8.326H61.7441V10.244H63.4801V11.854H61.7441ZM72.0998 13.954C72.0998 14.234 72.0812 14.486 72.0438 14.71H66.3738C66.4205 15.27 66.6165 15.7087 66.9618 16.026C67.3072 16.3433 67.7318 16.502 68.2358 16.502C68.9638 16.502 69.4818 16.1893 69.7898 15.564H71.9038C71.6798 16.3107 71.2505 16.9267 70.6158 17.412C69.9812 17.888 69.2018 18.126 68.2778 18.126C67.5312 18.126 66.8592 17.9627 66.2618 17.636C65.6738 17.3 65.2118 16.8287 64.8758 16.222C64.5492 15.6153 64.3858 14.9153 64.3858 14.122C64.3858 13.3193 64.5492 12.6147 64.8758 12.008C65.2025 11.4013 65.6598 10.9347 66.2478 10.608C66.8358 10.2813 67.5125 10.118 68.2778 10.118C69.0152 10.118 69.6732 10.2767 70.2518 10.594C70.8398 10.9113 71.2925 11.364 71.6098 11.952C71.9365 12.5307 72.0998 13.198 72.0998 13.954ZM70.0698 13.394C70.0605 12.89 69.8785 12.4887 69.5238 12.19C69.1692 11.882 68.7352 11.728 68.2218 11.728C67.7365 11.728 67.3258 11.8773 66.9898 12.176C66.6632 12.4653 66.4625 12.8713 66.3878 13.394H70.0698ZM83.1625 10.132C84.1145 10.132 84.8798 10.426 85.4585 11.014C86.0465 11.5927 86.3405 12.4047 86.3405 13.45V18H84.3805V13.716C84.3805 13.1093 84.2265 12.6473 83.9185 12.33C83.6105 12.0033 83.1905 11.84 82.6585 11.84C82.1265 11.84 81.7018 12.0033 81.3845 12.33C81.0765 12.6473 80.9225 13.1093 80.9225 13.716V18H78.9625V13.716C78.9625 13.1093 78.8085 12.6473 78.5005 12.33C78.1925 12.0033 77.7725 11.84 77.2405 11.84C76.6991 11.84 76.2698 12.0033 75.9525 12.33C75.6445 12.6473 75.4905 13.1093 75.4905 13.716V18H73.5305V10.244H75.4905V11.182C75.7425 10.8553 76.0645 10.5987 76.4565 10.412C76.8578 10.2253 77.2965 10.132 77.7725 10.132C78.3791 10.132 78.9205 10.2627 79.3965 10.524C79.8725 10.776 80.2411 11.14 80.5025 11.616C80.7545 11.168 81.1185 10.8087 81.5945 10.538C82.0798 10.2673 82.6025 10.132 83.1625 10.132Z" fill="white"/>
</svg>
