<svg width="64" height="64" viewBox="0 0 64 64" fill="none" xmlns="http://www.w3.org/2000/svg">
<path d="M35.268 24.952C37.4867 24.952 39.2467 25.624 40.548 26.968C41.8707 28.312 42.532 30.1787 42.532 32.568V43H37.092V33.304C37.092 32.152 36.7827 31.2667 36.164 30.648C35.5667 30.008 34.7347 29.688 33.668 29.688C32.6013 29.688 31.7587 30.008 31.14 30.648C30.5427 31.2667 30.244 32.152 30.244 33.304V43H24.804V33.304C24.804 32.152 24.4947 31.2667 23.876 30.648C23.2787 30.008 22.4467 29.688 21.38 29.688C20.3133 29.688 19.4707 30.008 18.852 30.648C18.2547 31.2667 17.956 32.152 17.956 33.304V43H12.484V25.144H17.956V27.384C18.5107 26.6373 19.236 26.0507 20.132 25.624C21.028 25.176 22.0413 24.952 23.172 24.952C24.516 24.952 25.7107 25.24 26.756 25.816C27.8227 26.392 28.6547 27.2133 29.252 28.28C29.8707 27.2987 30.7133 26.4987 31.78 25.88C32.8467 25.2613 34.0093 24.952 35.268 24.952ZM48.919 43.256C47.959 43.256 47.1697 42.9787 46.551 42.424C45.9537 41.848 45.655 41.144 45.655 40.312C45.655 39.4587 45.9537 38.744 46.551 38.168C47.1697 37.592 47.959 37.304 48.919 37.304C49.8577 37.304 50.6257 37.592 51.223 38.168C51.8417 38.744 52.151 39.4587 52.151 40.312C52.151 41.144 51.8417 41.848 51.223 42.424C50.6257 42.9787 49.8577 43.256 48.919 43.256Z" fill="#E5E5E5"/>
</svg>
