<svg width="237" height="246" viewBox="0 0 237 246" fill="none" xmlns="http://www.w3.org/2000/svg">
<rect width="237" height="246" fill="#FCFCFC"/>
<path d="M43.0795 113V60.6364H49.1818V113H43.0795ZM46.1818 51.6364C44.9318 51.6364 43.8636 51.2159 42.9773 50.375C42.0909 49.5114 41.6477 48.4773 41.6477 47.2727C41.6477 46.0682 42.0909 45.0455 42.9773 44.2045C43.8636 43.3409 44.9318 42.9091 46.1818 42.9091C47.4318 42.9091 48.5 43.3409 49.3864 44.2045C50.2727 45.0455 50.7159 46.0682 50.7159 47.2727C50.7159 48.4773 50.2727 49.5114 49.3864 50.375C48.5 51.2159 47.4318 51.6364 46.1818 51.6364ZM84.1751 114.193C81.016 114.193 78.1297 113.58 75.516 112.352C72.9024 111.102 70.8228 109.307 69.2774 106.966C67.7319 104.602 66.9592 101.739 66.9592 98.375C66.9592 95.7841 67.4478 93.6023 68.4251 91.8295C69.4024 90.0568 70.7887 88.6023 72.5842 87.4659C74.3797 86.3295 76.5047 85.4318 78.9592 84.7727C81.4138 84.1136 84.1183 83.6023 87.0728 83.2386C90.0047 82.875 92.4819 82.5568 94.5047 82.2841C96.5501 82.0114 98.1069 81.5795 99.1751 80.9886C100.243 80.3977 100.777 79.4432 100.777 78.125V76.8977C100.777 73.3295 99.7092 70.5227 97.5728 68.4773C95.4592 66.4091 92.4138 65.375 88.4365 65.375C84.6637 65.375 81.5842 66.2045 79.1978 67.8636C76.8342 69.5227 75.1751 71.4773 74.2206 73.7273L68.4592 71.6477C69.641 68.7841 71.2774 66.5 73.3683 64.7955C75.4592 63.0682 77.8001 61.8295 80.391 61.0795C82.9819 60.3068 85.6069 59.9205 88.266 59.9205C90.266 59.9205 92.3456 60.1818 94.5047 60.7045C96.6865 61.2273 98.7092 62.1364 100.573 63.4318C102.436 64.7045 103.948 66.4886 105.107 68.7841C106.266 71.0568 106.846 73.9432 106.846 77.4432V113H100.777V104.716H100.402C99.6751 106.261 98.5956 107.761 97.1637 109.216C95.7319 110.67 93.9365 111.864 91.7774 112.795C89.6183 113.727 87.0842 114.193 84.1751 114.193ZM84.9933 108.636C88.2206 108.636 91.016 107.92 93.3797 106.489C95.7433 105.057 97.5615 103.159 98.8342 100.795C100.13 98.4091 100.777 95.7841 100.777 92.9205V85.3523C100.323 85.7841 99.5615 86.1705 98.4933 86.5114C97.4478 86.8523 96.2319 87.1591 94.8456 87.4318C93.4819 87.6818 92.1183 87.8977 90.7547 88.0795C89.391 88.2614 88.1637 88.4205 87.0728 88.5568C84.1183 88.9205 81.5956 89.4886 79.5047 90.2614C77.4138 91.0341 75.8115 92.1023 74.6978 93.4659C73.5842 94.8068 73.0274 96.5341 73.0274 98.6477C73.0274 101.83 74.1637 104.295 76.4365 106.045C78.7092 107.773 81.5615 108.636 84.9933 108.636ZM127.308 113V60.6364H133.205V68.6818H133.751C134.796 65.9773 136.535 63.8523 138.967 62.3068C141.421 60.7386 144.364 59.9545 147.796 59.9545C151.41 59.9545 154.376 60.8068 156.694 62.5114C159.035 64.1932 160.785 66.5114 161.944 69.4659H162.387C163.569 66.5568 165.489 64.25 168.149 62.5455C170.83 60.8182 174.08 59.9545 177.899 59.9545C182.762 59.9545 186.603 61.4886 189.421 64.5568C192.239 67.6023 193.649 72.0568 193.649 77.9205V113H187.58V77.9205C187.58 73.7841 186.524 70.6818 184.41 68.6136C182.296 66.5455 179.512 65.5114 176.058 65.5114C172.058 65.5114 168.978 66.7386 166.819 69.1932C164.66 71.6477 163.58 74.7614 163.58 78.5341V113H157.376V77.375C157.376 73.8295 156.387 70.9659 154.41 68.7841C152.433 66.6023 149.649 65.5114 146.058 65.5114C143.649 65.5114 141.478 66.1023 139.546 67.2841C137.637 68.4659 136.126 70.1136 135.012 72.2273C133.921 74.3182 133.376 76.7273 133.376 79.4545V113H127.308Z" fill="#8E8E8E"/>
<path d="M41.3409 201V148.636H53.1364V157.534H53.75C54.8409 154.534 56.6477 152.193 59.1705 150.511C61.6932 148.807 64.7045 147.955 68.2045 147.955C71.75 147.955 74.7386 148.818 77.1705 150.545C79.625 152.25 81.3523 154.58 82.3523 157.534H82.8977C84.0568 154.625 86.0114 152.307 88.7614 150.58C91.5341 148.83 94.8182 147.955 98.6136 147.955C103.432 147.955 107.364 149.477 110.409 152.523C113.455 155.568 114.977 160.011 114.977 165.852V201H102.602V167.761C102.602 164.511 101.739 162.136 100.011 160.636C98.2841 159.114 96.1705 158.352 93.6705 158.352C90.6932 158.352 88.3636 159.284 86.6818 161.148C85.0227 162.989 84.1932 165.386 84.1932 168.341V201H72.0909V167.25C72.0909 164.545 71.2727 162.386 69.6364 160.773C68.0227 159.159 65.9091 158.352 63.2955 158.352C61.5227 158.352 59.9091 158.807 58.4545 159.716C57 160.602 55.8409 161.864 54.9773 163.5C54.1136 165.114 53.6818 167 53.6818 169.159V201H41.3409ZM142.565 202.057C139.247 202.057 136.259 201.466 133.599 200.284C130.963 199.08 128.872 197.307 127.327 194.966C125.804 192.625 125.043 189.739 125.043 186.307C125.043 183.352 125.588 180.909 126.679 178.977C127.77 177.045 129.259 175.5 131.145 174.341C133.031 173.182 135.156 172.307 137.52 171.716C139.906 171.102 142.372 170.659 144.918 170.386C147.986 170.068 150.474 169.784 152.384 169.534C154.293 169.261 155.679 168.852 156.543 168.307C157.429 167.739 157.872 166.864 157.872 165.682V165.477C157.872 162.909 157.111 160.92 155.588 159.511C154.065 158.102 151.872 157.398 149.009 157.398C145.986 157.398 143.588 158.057 141.815 159.375C140.065 160.693 138.884 162.25 138.27 164.045L126.747 162.409C127.656 159.227 129.156 156.568 131.247 154.432C133.338 152.273 135.895 150.659 138.918 149.591C141.94 148.5 145.281 147.955 148.94 147.955C151.463 147.955 153.974 148.25 156.474 148.841C158.974 149.432 161.259 150.409 163.327 151.773C165.395 153.114 167.054 154.943 168.304 157.261C169.577 159.58 170.213 162.477 170.213 165.955V201H158.349V193.807H157.94C157.19 195.261 156.134 196.625 154.77 197.898C153.429 199.148 151.736 200.159 149.69 200.932C147.668 201.682 145.293 202.057 142.565 202.057ZM145.77 192.989C148.247 192.989 150.395 192.5 152.213 191.523C154.031 190.523 155.429 189.205 156.406 187.568C157.406 185.932 157.906 184.148 157.906 182.216V176.045C157.52 176.364 156.861 176.659 155.929 176.932C155.02 177.205 153.997 177.443 152.861 177.648C151.724 177.852 150.599 178.034 149.486 178.193C148.372 178.352 147.406 178.489 146.588 178.602C144.747 178.852 143.099 179.261 141.645 179.83C140.19 180.398 139.043 181.193 138.202 182.216C137.361 183.216 136.94 184.511 136.94 186.102C136.94 188.375 137.77 190.091 139.429 191.25C141.088 192.409 143.202 192.989 145.77 192.989ZM182.622 201V148.636H194.963V201H182.622ZM188.827 141.205C186.872 141.205 185.19 140.557 183.781 139.261C182.372 137.943 181.668 136.364 181.668 134.523C181.668 132.659 182.372 131.08 183.781 129.784C185.19 128.466 186.872 127.807 188.827 127.807C190.804 127.807 192.486 128.466 193.872 129.784C195.281 131.08 195.986 132.659 195.986 134.523C195.986 136.364 195.281 137.943 193.872 139.261C192.486 140.557 190.804 141.205 188.827 141.205Z" fill="#4F4F4F"/>
</svg>
