<svg width="58" height="58" viewBox="0 0 58 58" fill="none" xmlns="http://www.w3.org/2000/svg">
<path fill-rule="evenodd" clip-rule="evenodd" d="M57.3694 17.2125C57.1035 18.473 55.8549 19.2854 54.6007 19.0184L45.4426 17.0888C44.1815 16.8229 43.3698 15.575 43.6357 14.3215C43.9017 13.061 45.1502 12.2497 46.4045 12.5155L55.5626 14.4452C56.8237 14.7111 57.6354 15.9589 57.3694 17.2125Z" fill="#215054"/>
<path d="M45.2069 18.2412L54.3652 20.1719L52.9163 27.0382L43.7579 25.1076L45.2069 18.2412Z" fill="#215054"/>
<path fill-rule="evenodd" clip-rule="evenodd" d="M43.5118 26.2414L52.6699 28.171L47.3525 53.3437C46.8194 55.8647 44.3304 57.4884 41.8081 56.9556C39.2859 56.4227 37.6613 53.935 38.1945 51.4141L43.5118 26.2402V26.2414ZM45.1307 46.9005C45.7612 47.0299 46.378 46.6277 46.5156 45.9975C46.6452 45.3673 46.2427 44.7439 45.6122 44.6133L43.3238 44.1263C42.6875 43.9968 42.0696 44.399 41.9331 45.0292C41.8036 45.6663 42.206 46.2828 42.8366 46.4192L45.1307 46.9005ZM46.0926 42.3204C46.73 42.4567 47.3468 42.0545 47.4832 41.4174C47.6128 40.7872 47.2104 40.1707 46.5798 40.0332L44.2857 39.5519C43.6551 39.4156 43.0383 39.8247 42.9019 40.4549C42.7723 41.0851 43.1748 41.7085 43.8053 41.8391L46.0937 42.3204H46.0926ZM47.0613 37.7472C47.6919 37.8767 48.3156 37.4745 48.4463 36.8442C48.5827 36.214 48.1734 35.5906 47.5428 35.4611L45.2545 34.9741C44.6239 34.8446 44.0002 35.2469 43.8695 35.8771C43.7331 36.5142 44.1367 37.1307 44.773 37.267L47.0613 37.7483V37.7472Z" fill="#215054"/>
<path fill-rule="evenodd" clip-rule="evenodd" d="M18.6705 4.56956L3.04509 9.47394C1.81721 9.85781 0.497605 9.16913 0.106655 7.94075C-0.276269 6.71351 0.412766 5.39459 1.64065 5.01072L17.266 0.106365C18.4939 -0.277504 19.8135 0.411164 20.1976 1.63267C20.5874 2.85991 19.8984 4.17882 18.6705 4.56842V4.56956Z" fill="#215054"/>
<path fill-rule="evenodd" clip-rule="evenodd" d="M19.0207 5.67969L21.1211 12.3774L5.4957 17.2817L3.39535 10.5909L19.0207 5.67969Z" fill="#215054"/>
<path fill-rule="evenodd" clip-rule="evenodd" d="M5.8459 18.4005L21.4713 13.4961L28.1335 34.6869C28.9463 37.2594 28.6471 43.1251 22.7588 44.9574C18.4629 46.2958 13.8609 43.8917 12.5081 39.5981L5.8459 18.4005ZM21.8542 34.2125C22.4722 34.0177 22.8092 33.3611 22.6212 32.7446C22.4263 32.1281 21.7694 31.7832 21.1526 31.978L16.687 33.3817C16.0691 33.5765 15.7251 34.2331 15.92 34.8496C16.1149 35.4603 16.7719 35.8041 17.3887 35.6093L21.8542 34.2125ZM20.4509 29.7504C21.0689 29.5556 21.4128 28.899 21.2179 28.2825C21.023 27.6649 20.3661 27.3211 19.7493 27.5159L15.2837 28.9196C14.6658 29.1144 14.3287 29.771 14.5167 30.3875C14.7116 31.004 15.3686 31.342 15.9854 31.1541L20.4509 29.7504ZM19.0465 25.2872C19.6644 25.0924 20.0084 24.4358 19.8135 23.8193C19.6186 23.2017 18.9616 22.8648 18.3448 23.0527L13.8793 24.4564C13.2682 24.6512 12.9243 25.3078 13.1192 25.9243C13.3072 26.5419 13.9641 26.8788 14.5821 26.6909L19.0476 25.2884L19.0465 25.2872Z" fill="#215054"/>
</svg>
