<svg width="39" height="40" viewBox="0 0 39 40" fill="none" xmlns="http://www.w3.org/2000/svg">
<path d="M26.4302 6.24965C26.4302 5.40818 26.0936 4.60118 25.4943 4.00618C24.8951 3.41117 24.0824 3.0769 23.2349 3.0769C22.3875 3.0769 21.5748 3.41117 20.9755 4.00618C20.3763 4.60118 20.0397 5.40818 20.0397 6.24965C20.0397 7.09111 20.3763 7.89811 20.9755 8.49311C21.5748 9.08812 22.3875 9.42239 23.2349 9.42239C24.0824 9.42239 24.8951 9.08812 25.4943 8.49311C26.0936 7.89811 26.4302 7.09111 26.4302 6.24965ZM13.496 14.6772C14.155 14.0229 15.0537 13.6527 15.9923 13.6527C16.1188 13.6527 16.2453 13.6593 16.3651 13.6725L14.2882 19.866C13.6691 21.7168 14.4013 23.7526 16.0722 24.7904L21.8104 28.3531L20.1195 34.2227C19.7934 35.3463 20.4524 36.5163 21.584 36.8402C22.7157 37.164 23.8939 36.5097 24.2201 35.386L26.1306 28.7497C26.5234 27.388 25.9576 25.9339 24.7527 25.1869L20.9716 22.8404L23.0286 17.3939L23.3681 18.2069C24.3666 20.5733 26.6898 22.1134 29.2727 22.1134H30.6905C31.8688 22.1134 32.8207 21.1681 32.8207 19.9982C32.8207 18.8282 31.8688 17.883 30.6905 17.883H29.2727C28.4139 17.883 27.6351 17.3675 27.3089 16.5809L26.8895 15.5894C25.9176 13.2693 23.9539 11.4979 21.5308 10.7576L18.2889 9.7661C17.55 9.54136 16.7778 9.42239 15.999 9.42239C13.9354 9.42239 11.9516 10.2354 10.4938 11.6896L8.94942 13.2165C8.11732 14.0427 8.11732 15.3845 8.94942 16.2107C9.78153 17.037 11.1329 17.037 11.965 16.2107L13.5027 14.6839L13.496 14.6772ZM11.1994 26.3437H7.2586C6.08034 26.3437 5.12842 27.2889 5.12842 28.4588C5.12842 29.6288 6.08034 30.574 7.2586 30.574H11.8917C13.1565 30.574 14.3015 29.8337 14.8141 28.6902L15.5796 26.9782L14.9472 26.5816C13.7823 25.8612 12.9169 24.8102 12.4243 23.6138L11.1994 26.3437Z" fill="white"/>
</svg>
