<svg width="312" height="78" viewBox="0 0 312 78" fill="none" xmlns="http://www.w3.org/2000/svg">
<g clip-path="url(#clip0_333_24196)">
<rect width="78" height="78" fill="#29656B"/>
<path d="M32.25 44.1242V44.1111L31.319 45.6944C30.8453 46.5001 30.5686 47.4077 30.5112 48.3459C30.1554 48.4454 29.7823 48.5 29.4 48.5C27.0452 48.5 25.1 46.5037 25.1 44V29V28.5H24.6C24.0102 28.5 23.5 27.9985 23.5 27.3333C23.5 26.6681 24.0102 26.1666 24.6 26.1666H27.8H31H34.2C34.7898 26.1666 35.3 26.6681 35.3 27.3333C35.3 27.9985 34.7898 28.5 34.2 28.5H33.7V29V41.6706L32.25 44.1242ZM27.8 28.5H27.3V29V34V34.5H27.8H31H31.5V34V29V28.5H31H27.8ZM48.6 28.5H48.1V29V36.8593V36.996L48.1695 37.1136L54.0544 47.077C54.0544 47.077 54.0545 47.0771 54.0545 47.0772C54.3438 47.5675 54.5 48.1358 54.5 48.7187C54.5 50.4568 53.1498 51.8333 51.53 51.8333H36.07C34.4502 51.8333 33.1 50.4568 33.1 48.7187C33.1 48.142 33.2558 47.573 33.5461 47.0761C33.5463 47.0758 33.5465 47.0755 33.5466 47.0753L39.4305 37.1136L39.5 36.996V36.8593V29V28.5H39C38.4102 28.5 37.9 27.9985 37.9 27.3333C37.9 26.6681 38.4102 26.1666 39 26.1666H40.6H47H48.6C49.1898 26.1666 49.7 26.6681 49.7 27.3333C49.7 27.9985 49.1898 28.5 48.6 28.5ZM42.2 28.5H41.7V29V37.3333C41.7 37.5534 41.6429 37.7677 41.5339 37.955C41.5336 37.9555 41.5334 37.9559 41.5331 37.9563L39.0947 42.0787L38.6483 42.8333H39.525H48.075H48.9517L48.5054 42.0787L46.0654 37.9537L46.0647 37.9526C45.9581 37.7736 45.9 37.5606 45.9 37.3333V29V28.5H45.4H42.2Z" fill="#F4F4F5" stroke="#F4F4F5"/>
<rect width="78" height="78" transform="translate(78)" fill="#1E3F43"/>
<g clip-path="url(#clip1_333_24196)">
<path d="M126.333 33.6667L121 39H125C125 43.4134 121.413 47 117 47C115.653 47 114.373 46.6667 113.267 46.0667L111.32 48.0134C112.96 49.0534 114.907 49.6667 117 49.6667C122.893 49.6667 127.667 44.8934 127.667 39H131.667L126.333 33.6667ZM109 39C109 34.5867 112.587 31 117 31C118.347 31 119.627 31.3334 120.733 31.9334L122.68 29.9867C121.04 28.9467 119.093 28.3334 117 28.3334C111.107 28.3334 106.333 33.1067 106.333 39H102.333L107.667 44.3334L113 39H109Z" fill="#F4F4F5"/>
</g>
<rect width="78" height="78" transform="translate(156)" fill="#29656B"/>
<path d="M179 27C179 25.8937 179.894 25 181 25H184.5H187.5H191C192.106 25 193 25.8937 193 27C193 28.1063 192.106 29 191 29V48C191 50.7625 188.763 53 186 53C183.237 53 181 50.7625 181 48V29C179.894 29 179 28.1063 179 27ZM187.5 29H184.5V39H187.5V29ZM197 27C197 25.8937 197.894 25 199 25H202.5H205.5H209C210.106 25 211 25.8937 211 27C211 28.1063 210.106 29 209 29V48C209 50.7625 206.763 53 204 53C201.237 53 199 50.7625 199 48V29C197.894 29 197 28.1063 197 27ZM205.5 29H202.5V39H205.5V29Z" fill="#F4F4F5"/>
<rect width="78" height="78" transform="translate(234)" fill="#1E3F43"/>
<g clip-path="url(#clip2_333_24196)">
<path d="M279.667 28.3334L285 33.6667L279.667 39V35H274.333V32.3334H279.667V28.3334ZM270.333 32.3334C269.6 32.3334 269 32.9334 269 33.6667C269 34.4 269.6 35 270.333 35C271.067 35 271.667 34.4 271.667 33.6667C271.667 32.9334 271.067 32.3334 270.333 32.3334ZM265 32.3334C264.267 32.3334 263.667 32.9334 263.667 33.6667C263.667 34.4 264.267 35 265 35C265.733 35 266.333 34.4 266.333 33.6667C266.333 32.9334 265.733 32.3334 265 32.3334ZM266.333 45.6667H271.667V43H266.333V39L261 44.3334L266.333 49.6667V45.6667ZM275.667 45.6667C276.4 45.6667 277 45.0667 277 44.3334C277 43.6 276.4 43 275.667 43C274.933 43 274.333 43.6 274.333 44.3334C274.333 45.0667 274.933 45.6667 275.667 45.6667ZM281 45.6667C281.733 45.6667 282.333 45.0667 282.333 44.3334C282.333 43.6 281.733 43 281 43C280.267 43 279.667 43.6 279.667 44.3334C279.667 45.0667 280.267 45.6667 281 45.6667Z" fill="#F4F4F5"/>
</g>
</g>
<defs>
<clipPath id="clip0_333_24196">
<rect width="312" height="78" rx="8" fill="white"/>
</clipPath>
<clipPath id="clip1_333_24196">
<rect width="32" height="32" fill="white" transform="translate(101 23)"/>
</clipPath>
<clipPath id="clip2_333_24196">
<rect width="32" height="32" fill="white" transform="translate(257 23)"/>
</clipPath>
</defs>
</svg>
