<svg width="474" height="132" viewBox="0 0 474 132" fill="none" xmlns="http://www.w3.org/2000/svg">
<rect width="474" height="132" rx="8" fill="#212121"/>
<path d="M21.008 26.192C20.112 26.192 19.2533 26.0747 18.432 25.84C17.6107 25.5947 16.9493 25.28 16.448 24.896L17.328 22.944C17.808 23.2853 18.3733 23.568 19.024 23.792C19.6853 24.0053 20.352 24.112 21.024 24.112C21.536 24.112 21.9467 24.064 22.256 23.968C22.576 23.8613 22.8107 23.7173 22.96 23.536C23.1093 23.3547 23.184 23.1467 23.184 22.912C23.184 22.6133 23.0667 22.3787 22.832 22.208C22.5973 22.0267 22.288 21.8827 21.904 21.776C21.52 21.6587 21.0933 21.552 20.624 21.456C20.1653 21.3493 19.7013 21.2213 19.232 21.072C18.7733 20.9227 18.352 20.7307 17.968 20.496C17.584 20.2613 17.2693 19.952 17.024 19.568C16.7893 19.184 16.672 18.6933 16.672 18.096C16.672 17.456 16.8427 16.8747 17.184 16.352C17.536 15.8187 18.0587 15.3973 18.752 15.088C19.456 14.768 20.336 14.608 21.392 14.608C22.096 14.608 22.7893 14.6933 23.472 14.864C24.1547 15.024 24.7573 15.2693 25.28 15.6L24.48 17.568C23.9573 17.2693 23.4347 17.0507 22.912 16.912C22.3893 16.7627 21.8773 16.688 21.376 16.688C20.8747 16.688 20.464 16.7467 20.144 16.864C19.824 16.9813 19.5947 17.136 19.456 17.328C19.3173 17.5093 19.248 17.7227 19.248 17.968C19.248 18.256 19.3653 18.4907 19.6 18.672C19.8347 18.8427 20.144 18.9813 20.528 19.088C20.912 19.1947 21.3333 19.3013 21.792 19.408C22.2613 19.5147 22.7253 19.6373 23.184 19.776C23.6533 19.9147 24.08 20.1013 24.464 20.336C24.848 20.5707 25.1573 20.88 25.392 21.264C25.6373 21.648 25.76 22.1333 25.76 22.72C25.76 23.3493 25.584 23.9253 25.232 24.448C24.88 24.9707 24.352 25.392 23.648 25.712C22.9547 26.032 22.0747 26.192 21.008 26.192ZM31.6271 26.128C30.6458 26.128 29.7818 25.936 29.0351 25.552C28.2991 25.168 27.7285 24.6453 27.3231 23.984C26.9178 23.312 26.7151 22.5493 26.7151 21.696C26.7151 20.832 26.9125 20.0693 27.3071 19.408C27.7125 18.736 28.2618 18.2133 28.9551 17.84C29.6485 17.456 30.4325 17.264 31.3071 17.264C32.1498 17.264 32.9071 17.4453 33.5791 17.808C34.2618 18.16 34.8005 18.672 35.1951 19.344C35.5898 20.0053 35.7871 20.8 35.7871 21.728C35.7871 21.824 35.7818 21.936 35.7711 22.064C35.7605 22.1813 35.7498 22.2933 35.7391 22.4H28.7471V20.944H34.4271L33.4671 21.376C33.4671 20.928 33.3765 20.5387 33.1951 20.208C33.0138 19.8773 32.7631 19.6213 32.4431 19.44C32.1231 19.248 31.7498 19.152 31.3231 19.152C30.8965 19.152 30.5178 19.248 30.1871 19.44C29.8671 19.6213 29.6165 19.8827 29.4351 20.224C29.2538 20.5547 29.1631 20.9493 29.1631 21.408V21.792C29.1631 22.2613 29.2645 22.6773 29.4671 23.04C29.6805 23.392 29.9738 23.664 30.3471 23.856C30.7311 24.0373 31.1791 24.128 31.6911 24.128C32.1498 24.128 32.5498 24.0587 32.8911 23.92C33.2431 23.7813 33.5631 23.5733 33.8511 23.296L35.1791 24.736C34.7845 25.184 34.2885 25.5307 33.6911 25.776C33.0938 26.0107 32.4058 26.128 31.6271 26.128ZM37.4489 26V14.128H39.9449V26H37.4489ZM46.5334 26.128C45.552 26.128 44.688 25.936 43.9414 25.552C43.2054 25.168 42.6347 24.6453 42.2294 23.984C41.824 23.312 41.6214 22.5493 41.6214 21.696C41.6214 20.832 41.8187 20.0693 42.2134 19.408C42.6187 18.736 43.168 18.2133 43.8614 17.84C44.5547 17.456 45.3387 17.264 46.2134 17.264C47.056 17.264 47.8134 17.4453 48.4854 17.808C49.168 18.16 49.7067 18.672 50.1014 19.344C50.496 20.0053 50.6934 20.8 50.6934 21.728C50.6934 21.824 50.688 21.936 50.6774 22.064C50.6667 22.1813 50.656 22.2933 50.6454 22.4H43.6534V20.944H49.3334L48.3734 21.376C48.3734 20.928 48.2827 20.5387 48.1014 20.208C47.92 19.8773 47.6694 19.6213 47.3494 19.44C47.0294 19.248 46.656 19.152 46.2294 19.152C45.8027 19.152 45.424 19.248 45.0934 19.44C44.7734 19.6213 44.5227 19.8827 44.3414 20.224C44.16 20.5547 44.0694 20.9493 44.0694 21.408V21.792C44.0694 22.2613 44.1707 22.6773 44.3734 23.04C44.5867 23.392 44.88 23.664 45.2534 23.856C45.6374 24.0373 46.0854 24.128 46.5974 24.128C47.056 24.128 47.456 24.0587 47.7974 23.92C48.1494 23.7813 48.4694 23.5733 48.7574 23.296L50.0854 24.736C49.6907 25.184 49.1947 25.5307 48.5974 25.776C48 26.0107 47.312 26.128 46.5334 26.128ZM56.5151 26.128C55.5871 26.128 54.7605 25.9413 54.0351 25.568C53.3098 25.184 52.7391 24.656 52.3231 23.984C51.9178 23.312 51.7151 22.5493 51.7151 21.696C51.7151 20.832 51.9178 20.0693 52.3231 19.408C52.7391 18.736 53.3098 18.2133 54.0351 17.84C54.7605 17.456 55.5871 17.264 56.5151 17.264C57.4218 17.264 58.2111 17.456 58.8831 17.84C59.5551 18.2133 60.0511 18.752 60.3711 19.456L58.4351 20.496C58.2111 20.0907 57.9285 19.792 57.5871 19.6C57.2565 19.408 56.8938 19.312 56.4991 19.312C56.0725 19.312 55.6885 19.408 55.3471 19.6C55.0058 19.792 54.7338 20.064 54.5311 20.416C54.3391 20.768 54.2431 21.1947 54.2431 21.696C54.2431 22.1973 54.3391 22.624 54.5311 22.976C54.7338 23.328 55.0058 23.6 55.3471 23.792C55.6885 23.984 56.0725 24.08 56.4991 24.08C56.8938 24.08 57.2565 23.9893 57.5871 23.808C57.9285 23.616 58.2111 23.312 58.4351 22.896L60.3711 23.952C60.0511 24.6453 59.5551 25.184 58.8831 25.568C58.2111 25.9413 57.4218 26.128 56.5151 26.128ZM65.4533 26.128C64.4399 26.128 63.6506 25.872 63.0853 25.36C62.5199 24.8373 62.2373 24.064 62.2373 23.04V15.488H64.7333V23.008C64.7333 23.3707 64.8293 23.6533 65.0213 23.856C65.2133 24.048 65.4746 24.144 65.8053 24.144C66.1999 24.144 66.5359 24.0373 66.8133 23.824L67.4853 25.584C67.2293 25.7653 66.9199 25.904 66.5573 26C66.2053 26.0853 65.8373 26.128 65.4533 26.128ZM60.9093 19.504V17.584H66.8773V19.504H60.9093ZM78.6976 26V24.32L78.5376 23.952V20.944C78.5376 20.4107 78.3723 19.9947 78.0416 19.696C77.7216 19.3973 77.2256 19.248 76.5536 19.248C76.095 19.248 75.6416 19.3227 75.1936 19.472C74.7563 19.6107 74.383 19.8027 74.0736 20.048L73.1776 18.304C73.647 17.9733 74.2123 17.7173 74.8736 17.536C75.535 17.3547 76.207 17.264 76.8896 17.264C78.2016 17.264 79.2203 17.5733 79.9456 18.192C80.671 18.8107 81.0336 19.776 81.0336 21.088V26H78.6976ZM76.0736 26.128C75.4016 26.128 74.8256 26.016 74.3456 25.792C73.8656 25.5573 73.4976 25.2427 73.2416 24.848C72.9856 24.4533 72.8576 24.0107 72.8576 23.52C72.8576 23.008 72.9803 22.56 73.2256 22.176C73.4816 21.792 73.8816 21.4933 74.4256 21.28C74.9696 21.056 75.679 20.944 76.5536 20.944H78.8416V22.4H76.8256C76.239 22.4 75.8336 22.496 75.6096 22.688C75.3963 22.88 75.2896 23.12 75.2896 23.408C75.2896 23.728 75.4123 23.984 75.6576 24.176C75.9136 24.3573 76.2603 24.448 76.6976 24.448C77.1136 24.448 77.487 24.352 77.8176 24.16C78.1483 23.9573 78.3883 23.664 78.5376 23.28L78.9216 24.432C78.7403 24.9867 78.4096 25.408 77.9296 25.696C77.4496 25.984 76.831 26.128 76.0736 26.128ZM90.7199 26.128C89.9839 26.128 89.2745 26.0427 88.5919 25.872C87.9199 25.6907 87.3865 25.4667 86.9919 25.2L87.8239 23.408C88.2185 23.6533 88.6825 23.856 89.2159 24.016C89.7599 24.1653 90.2932 24.24 90.8159 24.24C91.3919 24.24 91.7972 24.1707 92.0319 24.032C92.2772 23.8933 92.3999 23.7013 92.3999 23.456C92.3999 23.2533 92.3039 23.104 92.1119 23.008C91.9305 22.9013 91.6852 22.8213 91.3759 22.768C91.0665 22.7147 90.7252 22.6613 90.3519 22.608C89.9892 22.5547 89.6212 22.4853 89.2479 22.4C88.8745 22.304 88.5332 22.1653 88.2239 21.984C87.9145 21.8027 87.6639 21.5573 87.4719 21.248C87.2905 20.9387 87.1999 20.5387 87.1999 20.048C87.1999 19.504 87.3545 19.024 87.6639 18.608C87.9839 18.192 88.4425 17.8667 89.0399 17.632C89.6372 17.3867 90.3519 17.264 91.1839 17.264C91.7705 17.264 92.3679 17.328 92.9759 17.456C93.5839 17.584 94.0905 17.7707 94.4959 18.016L93.6639 19.792C93.2479 19.5467 92.8265 19.3813 92.3999 19.296C91.9839 19.2 91.5785 19.152 91.1839 19.152C90.6292 19.152 90.2239 19.2267 89.9679 19.376C89.7119 19.5253 89.5839 19.7173 89.5839 19.952C89.5839 20.1653 89.6745 20.3253 89.8559 20.432C90.0479 20.5387 90.2985 20.624 90.6079 20.688C90.9172 20.752 91.2532 20.8107 91.6159 20.864C91.9892 20.9067 92.3625 20.976 92.7359 21.072C93.1092 21.168 93.4452 21.3067 93.7439 21.488C94.0532 21.6587 94.3039 21.8987 94.4959 22.208C94.6879 22.5067 94.7839 22.9013 94.7839 23.392C94.7839 23.9253 94.6239 24.4 94.3039 24.816C93.9839 25.2213 93.5199 25.5413 92.9119 25.776C92.3145 26.0107 91.5839 26.128 90.7199 26.128ZM99.8439 26.128C98.8305 26.128 98.0412 25.872 97.4759 25.36C96.9105 24.8373 96.6279 24.064 96.6279 23.04V15.488H99.1239V23.008C99.1239 23.3707 99.2199 23.6533 99.4119 23.856C99.6039 24.048 99.8652 24.144 100.196 24.144C100.591 24.144 100.927 24.0373 101.204 23.824L101.876 25.584C101.62 25.7653 101.311 25.904 100.948 26C100.596 26.0853 100.228 26.128 99.8439 26.128ZM95.2999 19.504V17.584H101.268V19.504H95.2999ZM108.557 26V24.32L108.397 23.952V20.944C108.397 20.4107 108.232 19.9947 107.901 19.696C107.581 19.3973 107.085 19.248 106.413 19.248C105.954 19.248 105.501 19.3227 105.053 19.472C104.616 19.6107 104.242 19.8027 103.933 20.048L103.037 18.304C103.506 17.9733 104.072 17.7173 104.733 17.536C105.394 17.3547 106.066 17.264 106.749 17.264C108.061 17.264 109.08 17.5733 109.805 18.192C110.53 18.8107 110.893 19.776 110.893 21.088V26H108.557ZM105.933 26.128C105.261 26.128 104.685 26.016 104.205 25.792C103.725 25.5573 103.357 25.2427 103.101 24.848C102.845 24.4533 102.717 24.0107 102.717 23.52C102.717 23.008 102.84 22.56 103.085 22.176C103.341 21.792 103.741 21.4933 104.285 21.28C104.829 21.056 105.538 20.944 106.413 20.944H108.701V22.4H106.685C106.098 22.4 105.693 22.496 105.469 22.688C105.256 22.88 105.149 23.12 105.149 23.408C105.149 23.728 105.272 23.984 105.517 24.176C105.773 24.3573 106.12 24.448 106.557 24.448C106.973 24.448 107.346 24.352 107.677 24.16C108.008 23.9573 108.248 23.664 108.397 23.28L108.781 24.432C108.6 24.9867 108.269 25.408 107.789 25.696C107.309 25.984 106.69 26.128 105.933 26.128ZM116.672 26.128C115.659 26.128 114.869 25.872 114.304 25.36C113.739 24.8373 113.456 24.064 113.456 23.04V15.488H115.952V23.008C115.952 23.3707 116.048 23.6533 116.24 23.856C116.432 24.048 116.693 24.144 117.024 24.144C117.419 24.144 117.755 24.0373 118.032 23.824L118.704 25.584C118.448 25.7653 118.139 25.904 117.776 26C117.424 26.0853 117.056 26.128 116.672 26.128ZM112.128 19.504V17.584H118.096V19.504H112.128ZM123.737 26.128C123.022 26.128 122.382 25.9893 121.817 25.712C121.262 25.4347 120.83 25.0133 120.521 24.448C120.212 23.872 120.057 23.1413 120.057 22.256V17.392H122.553V21.888C122.553 22.6027 122.702 23.1307 123.001 23.472C123.31 23.8027 123.742 23.968 124.297 23.968C124.681 23.968 125.022 23.888 125.321 23.728C125.62 23.5573 125.854 23.3013 126.025 22.96C126.196 22.608 126.281 22.1707 126.281 21.648V17.392H128.777V26H126.409V23.632L126.841 24.32C126.553 24.9173 126.126 25.3707 125.561 25.68C125.006 25.9787 124.398 26.128 123.737 26.128ZM133.986 26.128C133.25 26.128 132.54 26.0427 131.858 25.872C131.186 25.6907 130.652 25.4667 130.258 25.2L131.09 23.408C131.484 23.6533 131.948 23.856 132.482 24.016C133.026 24.1653 133.559 24.24 134.082 24.24C134.658 24.24 135.063 24.1707 135.298 24.032C135.543 23.8933 135.666 23.7013 135.666 23.456C135.666 23.2533 135.57 23.104 135.378 23.008C135.196 22.9013 134.951 22.8213 134.641 22.768C134.332 22.7147 133.991 22.6613 133.618 22.608C133.255 22.5547 132.887 22.4853 132.514 22.4C132.14 22.304 131.799 22.1653 131.49 21.984C131.18 21.8027 130.93 21.5573 130.738 21.248C130.556 20.9387 130.465 20.5387 130.465 20.048C130.465 19.504 130.62 19.024 130.93 18.608C131.25 18.192 131.708 17.8667 132.306 17.632C132.903 17.3867 133.618 17.264 134.45 17.264C135.036 17.264 135.634 17.328 136.242 17.456C136.85 17.584 137.356 17.7707 137.762 18.016L136.93 19.792C136.514 19.5467 136.092 19.3813 135.666 19.296C135.25 19.2 134.844 19.152 134.45 19.152C133.895 19.152 133.49 19.2267 133.234 19.376C132.978 19.5253 132.85 19.7173 132.85 19.952C132.85 20.1653 132.94 20.3253 133.122 20.432C133.314 20.5387 133.564 20.624 133.874 20.688C134.183 20.752 134.519 20.8107 134.882 20.864C135.255 20.9067 135.628 20.976 136.002 21.072C136.375 21.168 136.711 21.3067 137.01 21.488C137.319 21.6587 137.57 21.8987 137.762 22.208C137.954 22.5067 138.05 22.9013 138.05 23.392C138.05 23.9253 137.89 24.4 137.57 24.816C137.25 25.2213 136.786 25.5413 136.178 25.776C135.58 26.0107 134.85 26.128 133.986 26.128Z" fill="#F4F4F5"/>
<g filter="url(#filter0_bd_589_4897)">
<rect x="16" y="40" width="213" height="84" rx="16" fill="#0C1801"/>
<rect x="17" y="41" width="211" height="82" rx="15" stroke="#6EC1C4" stroke-width="2"/>
<rect x="32" y="70" width="24" height="24" rx="12" fill="#3D979E"/>
<circle cx="44" cy="82" r="6" fill="#0A171A"/>
<path d="M71.98 89L78.32 75H80.3L86.66 89H84.56L78.9 76.12H79.7L74.04 89H71.98ZM74.68 85.5L75.22 83.9H83.1L83.68 85.5H74.68ZM92.9908 89.12C91.9108 89.12 90.9441 88.8867 90.0908 88.42C89.2508 87.9533 88.5908 87.3133 88.1108 86.5C87.6308 85.6867 87.3908 84.7533 87.3908 83.7C87.3908 82.6467 87.6308 81.7133 88.1108 80.9C88.5908 80.0867 89.2508 79.4533 90.0908 79C90.9441 78.5333 91.9108 78.3 92.9908 78.3C93.9508 78.3 94.8041 78.4933 95.5508 78.88C96.3108 79.2533 96.8974 79.8133 97.3108 80.56L95.8508 81.5C95.5041 80.98 95.0774 80.6 94.5708 80.36C94.0774 80.1067 93.5441 79.98 92.9708 79.98C92.2774 79.98 91.6574 80.1333 91.1108 80.44C90.5641 80.7467 90.1308 81.18 89.8108 81.74C89.4908 82.2867 89.3308 82.94 89.3308 83.7C89.3308 84.46 89.4908 85.12 89.8108 85.68C90.1308 86.24 90.5641 86.6733 91.1108 86.98C91.6574 87.2867 92.2774 87.44 92.9708 87.44C93.5441 87.44 94.0774 87.32 94.5708 87.08C95.0774 86.8267 95.5041 86.44 95.8508 85.92L97.3108 86.84C96.8974 87.5733 96.3108 88.14 95.5508 88.54C94.8041 88.9267 93.9508 89.12 92.9908 89.12ZM103.573 89.12C102.507 89.12 101.68 88.8333 101.093 88.26C100.507 87.6867 100.213 86.8667 100.213 85.8V76.08H102.133V85.72C102.133 86.2933 102.273 86.7333 102.553 87.04C102.847 87.3467 103.26 87.5 103.793 87.5C104.393 87.5 104.893 87.3333 105.293 87L105.893 88.38C105.6 88.6333 105.247 88.82 104.833 88.94C104.433 89.06 104.013 89.12 103.573 89.12ZM98.4133 79.98V78.4H105.173V79.98H98.4133ZM108.215 89V78.4H110.135V89H108.215ZM109.175 76.36C108.801 76.36 108.488 76.24 108.235 76C107.995 75.76 107.875 75.4667 107.875 75.12C107.875 74.76 107.995 74.46 108.235 74.22C108.488 73.98 108.801 73.86 109.175 73.86C109.548 73.86 109.855 73.98 110.095 74.22C110.348 74.4467 110.475 74.7333 110.475 75.08C110.475 75.44 110.355 75.7467 110.115 76C109.875 76.24 109.561 76.36 109.175 76.36ZM116.58 89L111.94 78.4H113.94L118.06 88H117.1L121.3 78.4H123.18L118.54 89H116.58ZM129.399 89.12C128.266 89.12 127.266 88.8867 126.399 88.42C125.546 87.9533 124.879 87.3133 124.399 86.5C123.933 85.6867 123.699 84.7533 123.699 83.7C123.699 82.6467 123.926 81.7133 124.379 80.9C124.846 80.0867 125.479 79.4533 126.279 79C127.093 78.5333 128.006 78.3 129.019 78.3C130.046 78.3 130.953 78.5267 131.739 78.98C132.526 79.4333 133.139 80.0733 133.579 80.9C134.033 81.7133 134.259 82.6667 134.259 83.76C134.259 83.84 134.253 83.9333 134.239 84.04C134.239 84.1467 134.233 84.2467 134.219 84.34H125.199V82.96H133.219L132.439 83.44C132.453 82.76 132.313 82.1533 132.019 81.62C131.726 81.0867 131.319 80.6733 130.799 80.38C130.293 80.0733 129.699 79.92 129.019 79.92C128.353 79.92 127.759 80.0733 127.239 80.38C126.719 80.6733 126.313 81.0933 126.019 81.64C125.726 82.1733 125.579 82.7867 125.579 83.48V83.8C125.579 84.5067 125.739 85.14 126.059 85.7C126.393 86.2467 126.853 86.6733 127.439 86.98C128.026 87.2867 128.699 87.44 129.459 87.44C130.086 87.44 130.653 87.3333 131.159 87.12C131.679 86.9067 132.133 86.5867 132.519 86.16L133.579 87.4C133.099 87.96 132.499 88.3867 131.779 88.68C131.073 88.9733 130.279 89.12 129.399 89.12Z" fill="white"/>
</g>
<rect x="246" y="41" width="211" height="82" rx="15" stroke="#515258" stroke-width="2"/>
<rect x="262" y="71" width="22" height="22" rx="11" stroke="#F4F4F5" stroke-width="2"/>
<path d="M300.98 89L307.32 75H309.3L315.66 89H313.56L307.9 76.12H308.7L303.04 89H300.98ZM303.68 85.5L304.22 83.9H312.1L312.68 85.5H303.68ZM321.991 89.12C320.911 89.12 319.944 88.8867 319.091 88.42C318.251 87.9533 317.591 87.3133 317.111 86.5C316.631 85.6867 316.391 84.7533 316.391 83.7C316.391 82.6467 316.631 81.7133 317.111 80.9C317.591 80.0867 318.251 79.4533 319.091 79C319.944 78.5333 320.911 78.3 321.991 78.3C322.951 78.3 323.804 78.4933 324.551 78.88C325.311 79.2533 325.897 79.8133 326.311 80.56L324.851 81.5C324.504 80.98 324.077 80.6 323.571 80.36C323.077 80.1067 322.544 79.98 321.971 79.98C321.277 79.98 320.657 80.1333 320.111 80.44C319.564 80.7467 319.131 81.18 318.811 81.74C318.491 82.2867 318.331 82.94 318.331 83.7C318.331 84.46 318.491 85.12 318.811 85.68C319.131 86.24 319.564 86.6733 320.111 86.98C320.657 87.2867 321.277 87.44 321.971 87.44C322.544 87.44 323.077 87.32 323.571 87.08C324.077 86.8267 324.504 86.44 324.851 85.92L326.311 86.84C325.897 87.5733 325.311 88.14 324.551 88.54C323.804 88.9267 322.951 89.12 321.991 89.12ZM333.26 89.12C332.18 89.12 331.214 88.8867 330.36 88.42C329.52 87.9533 328.86 87.3133 328.38 86.5C327.9 85.6867 327.66 84.7533 327.66 83.7C327.66 82.6467 327.9 81.7133 328.38 80.9C328.86 80.0867 329.52 79.4533 330.36 79C331.214 78.5333 332.18 78.3 333.26 78.3C334.22 78.3 335.074 78.4933 335.82 78.88C336.58 79.2533 337.167 79.8133 337.58 80.56L336.12 81.5C335.774 80.98 335.347 80.6 334.84 80.36C334.347 80.1067 333.814 79.98 333.24 79.98C332.547 79.98 331.927 80.1333 331.38 80.44C330.834 80.7467 330.4 81.18 330.08 81.74C329.76 82.2867 329.6 82.94 329.6 83.7C329.6 84.46 329.76 85.12 330.08 85.68C330.4 86.24 330.834 86.6733 331.38 86.98C331.927 87.2867 332.547 87.44 333.24 87.44C333.814 87.44 334.347 87.32 334.84 87.08C335.347 86.8267 335.774 86.44 336.12 85.92L337.58 86.84C337.167 87.5733 336.58 88.14 335.82 88.54C335.074 88.9267 334.22 89.12 333.26 89.12ZM344.526 89.12C343.619 89.12 342.819 88.9533 342.126 88.62C341.446 88.2867 340.913 87.78 340.526 87.1C340.153 86.4067 339.966 85.54 339.966 84.5V78.4H341.886V84.28C341.886 85.32 342.133 86.1 342.626 86.62C343.133 87.14 343.839 87.4 344.746 87.4C345.413 87.4 345.993 87.2667 346.486 87C346.979 86.72 347.359 86.32 347.626 85.8C347.893 85.2667 348.026 84.6267 348.026 83.88V78.4H349.946V89H348.126V86.14L348.426 86.9C348.079 87.6067 347.559 88.1533 346.866 88.54C346.173 88.9267 345.393 89.12 344.526 89.12ZM366.861 78.3C367.715 78.3 368.468 78.4667 369.121 78.8C369.775 79.1333 370.281 79.64 370.641 80.32C371.015 81 371.201 81.86 371.201 82.9V89H369.281V83.12C369.281 82.0933 369.041 81.32 368.561 80.8C368.081 80.28 367.408 80.02 366.541 80.02C365.901 80.02 365.341 80.1533 364.861 80.42C364.381 80.6867 364.008 81.08 363.741 81.6C363.488 82.12 363.361 82.7667 363.361 83.54V89H361.441V83.12C361.441 82.0933 361.201 81.32 360.721 80.8C360.255 80.28 359.581 80.02 358.701 80.02C358.075 80.02 357.521 80.1533 357.041 80.42C356.561 80.6867 356.188 81.08 355.921 81.6C355.655 82.12 355.521 82.7667 355.521 83.54V89H353.601V78.4H355.441V81.22L355.141 80.5C355.475 79.8067 355.988 79.2667 356.681 78.88C357.375 78.4933 358.181 78.3 359.101 78.3C360.115 78.3 360.988 78.5533 361.721 79.06C362.455 79.5533 362.935 80.3067 363.161 81.32L362.381 81C362.701 80.1867 363.261 79.5333 364.061 79.04C364.861 78.5467 365.795 78.3 366.861 78.3ZM379.194 89.12C378.287 89.12 377.487 88.9533 376.794 88.62C376.114 88.2867 375.581 87.78 375.194 87.1C374.821 86.4067 374.634 85.54 374.634 84.5V78.4H376.554V84.28C376.554 85.32 376.801 86.1 377.294 86.62C377.801 87.14 378.507 87.4 379.414 87.4C380.081 87.4 380.661 87.2667 381.154 87C381.647 86.72 382.027 86.32 382.294 85.8C382.561 85.2667 382.694 84.6267 382.694 83.88V78.4H384.614V89H382.794V86.14L383.094 86.9C382.747 87.6067 382.227 88.1533 381.534 88.54C380.841 88.9267 380.061 89.12 379.194 89.12ZM388.269 89V74.16H390.189V89H388.269ZM400.435 89V86.76L400.335 86.34V82.52C400.335 81.7067 400.095 81.08 399.615 80.64C399.148 80.1867 398.442 79.96 397.495 79.96C396.868 79.96 396.255 80.0667 395.655 80.28C395.055 80.48 394.548 80.7533 394.135 81.1L393.335 79.66C393.882 79.22 394.535 78.8867 395.295 78.66C396.068 78.42 396.875 78.3 397.715 78.3C399.168 78.3 400.288 78.6533 401.075 79.36C401.862 80.0667 402.255 81.1467 402.255 82.6V89H400.435ZM396.955 89.12C396.168 89.12 395.475 88.9867 394.875 88.72C394.288 88.4533 393.835 88.0867 393.515 87.62C393.195 87.14 393.035 86.6 393.035 86C393.035 85.4267 393.168 84.9067 393.435 84.44C393.715 83.9733 394.162 83.6 394.775 83.32C395.402 83.04 396.242 82.9 397.295 82.9H400.655V84.28H397.375C396.415 84.28 395.768 84.44 395.435 84.76C395.102 85.08 394.935 85.4667 394.935 85.92C394.935 86.44 395.142 86.86 395.555 87.18C395.968 87.4867 396.542 87.64 397.275 87.64C397.995 87.64 398.622 87.48 399.155 87.16C399.702 86.84 400.095 86.3733 400.335 85.76L400.715 87.08C400.462 87.7067 400.015 88.2067 399.375 88.58C398.735 88.94 397.928 89.12 396.955 89.12ZM409.448 89.12C408.382 89.12 407.555 88.8333 406.968 88.26C406.382 87.6867 406.088 86.8667 406.088 85.8V76.08H408.008V85.72C408.008 86.2933 408.148 86.7333 408.428 87.04C408.722 87.3467 409.135 87.5 409.668 87.5C410.268 87.5 410.768 87.3333 411.168 87L411.768 88.38C411.475 88.6333 411.122 88.82 410.708 88.94C410.308 89.06 409.888 89.12 409.448 89.12ZM404.288 79.98V78.4H411.048V79.98H404.288ZM414.09 89V78.4H416.01V89H414.09ZM415.05 76.36C414.676 76.36 414.363 76.24 414.11 76C413.87 75.76 413.75 75.4667 413.75 75.12C413.75 74.76 413.87 74.46 414.11 74.22C414.363 73.98 414.676 73.86 415.05 73.86C415.423 73.86 415.73 73.98 415.97 74.22C416.223 74.4467 416.35 74.7333 416.35 75.08C416.35 75.44 416.23 75.7467 415.99 76C415.75 76.24 415.436 76.36 415.05 76.36ZM425.335 78.3C426.202 78.3 426.962 78.4667 427.615 78.8C428.282 79.1333 428.802 79.64 429.175 80.32C429.549 81 429.735 81.86 429.735 82.9V89H427.815V83.12C427.815 82.0933 427.562 81.32 427.055 80.8C426.562 80.28 425.862 80.02 424.955 80.02C424.275 80.02 423.682 80.1533 423.175 80.42C422.669 80.6867 422.275 81.08 421.995 81.6C421.729 82.12 421.595 82.7667 421.595 83.54V89H419.675V78.4H421.515V81.26L421.215 80.5C421.562 79.8067 422.095 79.2667 422.815 78.88C423.535 78.4933 424.375 78.3 425.335 78.3ZM437.929 93C436.955 93 436.009 92.86 435.089 92.58C434.182 92.3133 433.442 91.9267 432.869 91.42L433.789 89.94C434.282 90.3667 434.889 90.7 435.609 90.94C436.329 91.1933 437.082 91.32 437.869 91.32C439.122 91.32 440.042 91.0267 440.629 90.44C441.215 89.8533 441.509 88.96 441.509 87.76V85.52L441.709 83.42L441.609 81.3V78.4H443.429V87.56C443.429 89.4267 442.962 90.8 442.029 91.68C441.095 92.56 439.729 93 437.929 93ZM437.689 88.56C436.662 88.56 435.742 88.3467 434.929 87.92C434.129 87.48 433.489 86.8733 433.009 86.1C432.542 85.3267 432.309 84.4333 432.309 83.42C432.309 82.3933 432.542 81.5 433.009 80.74C433.489 79.9667 434.129 79.3667 434.929 78.94C435.742 78.5133 436.662 78.3 437.689 78.3C438.595 78.3 439.422 78.4867 440.169 78.86C440.915 79.22 441.509 79.78 441.949 80.54C442.402 81.3 442.629 82.26 442.629 83.42C442.629 84.5667 442.402 85.52 441.949 86.28C441.509 87.04 440.915 87.6133 440.169 88C439.422 88.3733 438.595 88.56 437.689 88.56ZM437.909 86.88C438.615 86.88 439.242 86.7333 439.789 86.44C440.335 86.1467 440.762 85.74 441.069 85.22C441.389 84.7 441.549 84.1 441.549 83.42C441.549 82.74 441.389 82.14 441.069 81.62C440.762 81.1 440.335 80.7 439.789 80.42C439.242 80.1267 438.615 79.98 437.909 79.98C437.202 79.98 436.569 80.1267 436.009 80.42C435.462 80.7 435.029 81.1 434.709 81.62C434.402 82.14 434.249 82.74 434.249 83.42C434.249 84.1 434.402 84.7 434.709 85.22C435.029 85.74 435.462 86.1467 436.009 86.44C436.569 86.7333 437.202 86.88 437.909 86.88Z" fill="white"/>
<defs>
<filter id="filter0_bd_589_4897" x="-5" y="19" width="255" height="126" filterUnits="userSpaceOnUse" color-interpolation-filters="sRGB">
<feFlood flood-opacity="0" result="BackgroundImageFix"/>
<feGaussianBlur in="BackgroundImageFix" stdDeviation="10.5"/>
<feComposite in2="SourceAlpha" operator="in" result="effect1_backgroundBlur_589_4897"/>
<feColorMatrix in="SourceAlpha" type="matrix" values="0 0 0 0 0 0 0 0 0 0 0 0 0 0 0 0 0 0 127 0" result="hardAlpha"/>
<feMorphology radius="4" operator="dilate" in="SourceAlpha" result="effect2_dropShadow_589_4897"/>
<feOffset/>
<feComposite in2="hardAlpha" operator="out"/>
<feColorMatrix type="matrix" values="0 0 0 0 0.431373 0 0 0 0 0.756863 0 0 0 0 0.768627 0 0 0 0.25 0"/>
<feBlend mode="normal" in2="effect1_backgroundBlur_589_4897" result="effect2_dropShadow_589_4897"/>
<feBlend mode="normal" in="SourceGraphic" in2="effect2_dropShadow_589_4897" result="shape"/>
</filter>
</defs>
</svg>
